<svg xmlns="http://www.w3.org/2000/svg" viewBox="0 -0.5 512 512" shape-rendering="crispEdges">
<metadata>Made with Pixels to Svg https://codepen.io/shshaw/pen/XbxvNj</metadata>
<path stroke="#fafafa" d="M0 0h512M0 1h512M0 2h512M0 3h512M0 4h512M0 5h512M0 6h512M0 7h512M0 8h512M0 9h512M0 10h512M0 11h512M0 12h512M0 13h512M0 14h512M0 15h512M0 16h256M272 16h240M0 17h256M272 17h240M0 18h256M272 18h240M0 19h256M272 19h240M0 20h256M272 20h240M0 21h256M272 21h240M0 22h256M272 22h240M0 23h256M272 23h240M0 24h256M272 24h240M0 25h256M272 25h240M0 26h256M272 26h240M0 27h256M272 27h240M0 28h256M272 28h240M0 29h256M272 29h240M0 30h256M272 30h240M0 31h256M272 31h240M0 32h240M272 32h240M0 33h240M272 33h240M0 34h240M272 34h240M0 35h240M272 35h240M0 36h240M272 36h240M0 37h240M272 37h240M0 38h240M272 38h240M0 39h240M272 39h240M0 40h240M272 40h240M0 41h240M272 41h240M0 42h240M272 42h240M0 43h240M272 43h240M0 44h240M272 44h240M0 45h240M272 45h240M0 46h240M272 46h240M0 47h240M272 47h240M0 48h224M272 48h240M0 49h224M272 49h240M0 50h224M272 50h240M0 51h224M272 51h240M0 52h224M272 52h240M0 53h224M272 53h240M0 54h224M272 54h240M0 55h224M272 55h240M0 56h224M272 56h240M0 57h224M272 57h240M0 58h224M272 58h240M0 59h224M272 59h240M0 60h224M272 60h240M0 61h224M272 61h240M0 62h224M272 62h240M0 63h224M272 63h240M0 64h208M288 64h224M0 65h208M288 65h224M0 66h208M288 66h224M0 67h208M288 67h224M0 68h208M288 68h224M0 69h208M288 69h224M0 70h208M288 70h224M0 71h208M288 71h224M0 72h208M288 72h224M0 73h208M288 73h224M0 74h208M288 74h224M0 75h208M288 75h224M0 76h208M288 76h224M0 77h208M288 77h224M0 78h208M288 78h224M0 79h208M288 79h224M0 80h192M304 80h208M0 81h192M304 81h208M0 82h192M304 82h208M0 83h192M304 83h208M0 84h192M304 84h208M0 85h192M304 85h208M0 86h192M304 86h208M0 87h192M304 87h208M0 88h192M304 88h208M0 89h192M304 89h208M0 90h192M304 90h208M0 91h192M304 91h208M0 92h192M304 92h208M0 93h192M304 93h208M0 94h192M304 94h208M0 95h192M304 95h208M0 96h192M304 96h208M0 97h192M304 97h208M0 98h192M304 98h208M0 99h192M304 99h208M0 100h192M304 100h208M0 101h192M304 101h208M0 102h192M304 102h208M0 103h192M304 103h208M0 104h192M304 104h208M0 105h192M304 105h208M0 106h192M304 106h208M0 107h192M304 107h208M0 108h192M304 108h208M0 109h192M304 109h208M0 110h192M304 110h208M0 111h192M304 111h208M0 112h192M304 112h208M0 113h192M304 113h208M0 114h192M304 114h208M0 115h192M304 115h208M0 116h192M304 116h208M0 117h192M304 117h208M0 118h192M304 118h208M0 119h192M304 119h208M0 120h192M304 120h208M0 121h192M304 121h208M0 122h192M304 122h208M0 123h192M304 123h208M0 124h192M304 124h208M0 125h192M304 125h208M0 126h192M304 126h208M0 127h192M304 127h208M0 128h176M320 128h192M0 129h176M320 129h192M0 130h176M320 130h192M0 131h176M320 131h192M0 132h176M320 132h192M0 133h176M320 133h192M0 134h176M320 134h192M0 135h176M320 135h192M0 136h176M320 136h192M0 137h176M320 137h192M0 138h176M320 138h192M0 139h176M320 139h192M0 140h176M320 140h192M0 141h176M320 141h192M0 142h176M320 142h192M0 143h176M320 143h192M0 144h160M336 144h176M0 145h160M336 145h176M0 146h160M336 146h176M0 147h160M336 147h176M0 148h160M336 148h176M0 149h160M336 149h176M0 150h160M336 150h176M0 151h160M336 151h176M0 152h160M336 152h176M0 153h160M336 153h176M0 154h160M336 154h176M0 155h160M336 155h176M0 156h160M336 156h176M0 157h160M336 157h176M0 158h160M336 158h176M0 159h160M336 159h176M0 160h176M320 160h32M368 160h144M0 161h176M320 161h32M368 161h144M0 162h176M320 162h32M368 162h144M0 163h176M320 163h32M368 163h144M0 164h176M320 164h32M368 164h144M0 165h176M320 165h32M368 165h144M0 166h176M320 166h32M368 166h144M0 167h176M320 167h32M368 167h144M0 168h176M320 168h32M368 168h144M0 169h176M320 169h32M368 169h144M0 170h176M320 170h32M368 170h144M0 171h176M320 171h32M368 171h144M0 172h176M320 172h32M368 172h144M0 173h176M320 173h32M368 173h144M0 174h176M320 174h32M368 174h144M0 175h176M320 175h32M368 175h144M0 176h208M288 176h64M368 176h144M0 177h208M288 177h64M368 177h144M0 178h208M288 178h64M368 178h144M0 179h208M288 179h64M368 179h144M0 180h208M288 180h64M368 180h144M0 181h208M288 181h64M368 181h144M0 182h208M288 182h64M368 182h144M0 183h208M288 183h64M368 183h144M0 184h208M288 184h64M368 184h144M0 185h208M288 185h64M368 185h144M0 186h208M288 186h64M368 186h144M0 187h208M288 187h64M368 187h144M0 188h208M288 188h64M368 188h144M0 189h208M288 189h64M368 189h144M0 190h208M288 190h64M368 190h144M0 191h208M288 191h64M368 191h144M0 192h208M288 192h48M352 192h160M0 193h208M288 193h48M352 193h160M0 194h208M288 194h48M352 194h160M0 195h208M288 195h48M352 195h160M0 196h208M288 196h48M352 196h160M0 197h208M288 197h48M352 197h160M0 198h208M288 198h48M352 198h160M0 199h208M288 199h48M352 199h160M0 200h208M288 200h48M352 200h160M0 201h208M288 201h48M352 201h160M0 202h208M288 202h48M352 202h160M0 203h208M288 203h48M352 203h160M0 204h208M288 204h48M352 204h160M0 205h208M288 205h48M352 205h160M0 206h208M288 206h48M352 206h160M0 207h208M288 207h48M352 207h160M0 208h192M336 208h176M0 209h192M336 209h176M0 210h192M336 210h176M0 211h192M336 211h176M0 212h192M336 212h176M0 213h192M336 213h176M0 214h192M336 214h176M0 215h192M336 215h176M0 216h192M336 216h176M0 217h192M336 217h176M0 218h192M336 218h176M0 219h192M336 219h176M0 220h192M336 220h176M0 221h192M336 221h176M0 222h192M336 222h176M0 223h192M336 223h176M0 224h192M304 224h208M0 225h192M304 225h208M0 226h192M304 226h208M0 227h192M304 227h208M0 228h192M304 228h208M0 229h192M304 229h208M0 230h192M304 230h208M0 231h192M304 231h208M0 232h192M304 232h208M0 233h192M304 233h208M0 234h192M304 234h208M0 235h192M304 235h208M0 236h192M304 236h208M0 237h192M304 237h208M0 238h192M304 238h208M0 239h192M304 239h208M0 240h208M288 240h224M0 241h208M288 241h224M0 242h208M288 242h224M0 243h208M288 243h224M0 244h208M288 244h224M0 245h208M288 245h224M0 246h208M288 246h224M0 247h208M288 247h224M0 248h208M288 248h224M0 249h208M288 249h224M0 250h208M288 250h224M0 251h208M288 251h224M0 252h208M288 252h224M0 253h208M288 253h224M0 254h208M288 254h224M0 255h208M288 255h224M0 256h224M272 256h240M0 257h224M272 257h240M0 258h224M272 258h240M0 259h224M272 259h240M0 260h224M272 260h240M0 261h224M272 261h240M0 262h224M272 262h240M0 263h224M272 263h240M0 264h224M272 264h240M0 265h224M272 265h240M0 266h224M272 266h240M0 267h224M272 267h240M0 268h224M272 268h240M0 269h224M272 269h240M0 270h224M272 270h240M0 271h224M272 271h240M0 272h224M272 272h240M0 273h224M272 273h240M0 274h224M272 274h240M0 275h224M272 275h240M0 276h224M272 276h240M0 277h224M272 277h240M0 278h224M272 278h240M0 279h224M272 279h240M0 280h224M272 280h240M0 281h224M272 281h240M0 282h224M272 282h240M0 283h224M272 283h240M0 284h224M272 284h240M0 285h224M272 285h240M0 286h224M272 286h240M0 287h224M272 287h240M0 288h224M272 288h240M0 289h224M272 289h240M0 290h224M272 290h240M0 291h224M272 291h240M0 292h224M272 292h240M0 293h224M272 293h240M0 294h224M272 294h240M0 295h224M272 295h240M0 296h224M272 296h240M0 297h224M272 297h240M0 298h224M272 298h240M0 299h224M272 299h240M0 300h224M272 300h240M0 301h224M272 301h240M0 302h224M272 302h240M0 303h224M272 303h240M0 304h224M272 304h240M0 305h224M272 305h240M0 306h224M272 306h240M0 307h224M272 307h240M0 308h224M272 308h240M0 309h224M272 309h240M0 310h224M272 310h240M0 311h224M272 311h240M0 312h224M272 312h240M0 313h224M272 313h240M0 314h224M272 314h240M0 315h224M272 315h240M0 316h224M272 316h240M0 317h224M272 317h240M0 318h224M272 318h240M0 319h224M272 319h240M0 320h224M272 320h240M0 321h224M272 321h240M0 322h224M272 322h240M0 323h224M272 323h240M0 324h224M272 324h240M0 325h224M272 325h240M0 326h224M272 326h240M0 327h224M272 327h240M0 328h224M272 328h240M0 329h224M272 329h240M0 330h224M272 330h240M0 331h224M272 331h240M0 332h224M272 332h240M0 333h224M272 333h240M0 334h224M272 334h240M0 335h224M272 335h240M0 336h160M192 336h32M272 336h16M320 336h192M0 337h160M192 337h32M272 337h16M320 337h192M0 338h160M192 338h32M272 338h16M320 338h192M0 339h160M192 339h32M272 339h16M320 339h192M0 340h160M192 340h32M272 340h16M320 340h192M0 341h160M192 341h32M272 341h16M320 341h192M0 342h160M192 342h32M272 342h16M320 342h192M0 343h160M192 343h32M272 343h16M320 343h192M0 344h160M192 344h32M272 344h16M320 344h192M0 345h160M192 345h32M272 345h16M320 345h192M0 346h160M192 346h32M272 346h16M320 346h192M0 347h160M192 347h32M272 347h16M320 347h192M0 348h160M192 348h32M272 348h16M320 348h192M0 349h160M192 349h32M272 349h16M320 349h192M0 350h160M192 350h32M272 350h16M320 350h192M0 351h160M192 351h32M272 351h16M320 351h192M0 352h160M320 352h192M0 353h160M320 353h192M0 354h160M320 354h192M0 355h160M320 355h192M0 356h160M320 356h192M0 357h160M320 357h192M0 358h160M320 358h192M0 359h160M320 359h192M0 360h160M320 360h192M0 361h160M320 361h192M0 362h160M320 362h192M0 363h160M320 363h192M0 364h160M320 364h192M0 365h160M320 365h192M0 366h160M320 366h192M0 367h160M320 367h192M0 368h160M320 368h192M0 369h160M320 369h192M0 370h160M320 370h192M0 371h160M320 371h192M0 372h160M320 372h192M0 373h160M320 373h192M0 374h160M320 374h192M0 375h160M320 375h192M0 376h160M320 376h192M0 377h160M320 377h192M0 378h160M320 378h192M0 379h160M320 379h192M0 380h160M320 380h192M0 381h160M320 381h192M0 382h160M320 382h192M0 383h160M320 383h192M0 384h160M336 384h176M0 385h160M336 385h176M0 386h160M336 386h176M0 387h160M336 387h176M0 388h160M336 388h176M0 389h160M336 389h176M0 390h160M336 390h176M0 391h160M336 391h176M0 392h160M336 392h176M0 393h160M336 393h176M0 394h160M336 394h176M0 395h160M336 395h176M0 396h160M336 396h176M0 397h160M336 397h176M0 398h160M336 398h176M0 399h160M336 399h176M0 400h160M336 400h176M0 401h160M336 401h176M0 402h160M336 402h176M0 403h160M336 403h176M0 404h160M336 404h176M0 405h160M336 405h176M0 406h160M336 406h176M0 407h160M336 407h176M0 408h160M336 408h176M0 409h160M336 409h176M0 410h160M336 410h176M0 411h160M336 411h176M0 412h160M336 412h176M0 413h160M336 413h176M0 414h160M336 414h176M0 415h160M336 415h176M0 416h160M336 416h176M0 417h160M336 417h176M0 418h160M336 418h176M0 419h160M336 419h176M0 420h160M336 420h176M0 421h160M336 421h176M0 422h160M336 422h176M0 423h160M336 423h176M0 424h160M336 424h176M0 425h160M336 425h176M0 426h160M336 426h176M0 427h160M336 427h176M0 428h160M336 428h176M0 429h160M336 429h176M0 430h160M336 430h176M0 431h160M336 431h176M0 432h160M336 432h176M0 433h160M336 433h176M0 434h160M336 434h176M0 435h160M336 435h176M0 436h160M336 436h176M0 437h160M336 437h176M0 438h160M336 438h176M0 439h160M336 439h176M0 440h160M336 440h176M0 441h160M336 441h176M0 442h160M336 442h176M0 443h160M336 443h176M0 444h160M336 444h176M0 445h160M336 445h176M0 446h160M336 446h176M0 447h160M336 447h176M0 448h160M336 448h176M0 449h160M336 449h176M0 450h160M336 450h176M0 451h160M336 451h176M0 452h160M336 452h176M0 453h160M336 453h176M0 454h160M336 454h176M0 455h160M336 455h176M0 456h160M336 456h176M0 457h160M336 457h176M0 458h160M336 458h176M0 459h160M336 459h176M0 460h160M336 460h176M0 461h160M336 461h176M0 462h160M336 462h176M0 463h160M336 463h176M0 464h160M336 464h176M0 465h160M336 465h176M0 466h160M336 466h176M0 467h160M336 467h176M0 468h160M336 468h176M0 469h160M336 469h176M0 470h160M336 470h176M0 471h160M336 471h176M0 472h160M336 472h176M0 473h160M336 473h176M0 474h160M336 474h176M0 475h160M336 475h176M0 476h160M336 476h176M0 477h160M336 477h176M0 478h160M336 478h176M0 479h160M336 479h176M0 480h160M336 480h176M0 481h160M336 481h176M0 482h160M336 482h176M0 483h160M336 483h176M0 484h160M336 484h176M0 485h160M336 485h176M0 486h160M336 486h176M0 487h160M336 487h176M0 488h160M336 488h176M0 489h160M336 489h176M0 490h160M336 490h176M0 491h160M336 491h176M0 492h160M336 492h176M0 493h160M336 493h176M0 494h160M336 494h176M0 495h160M336 495h176M0 496h160M336 496h176M0 497h160M336 497h176M0 498h160M336 498h176M0 499h160M336 499h176M0 500h160M336 500h176M0 501h160M336 501h176M0 502h160M336 502h176M0 503h160M336 503h176M0 504h160M336 504h176M0 505h160M336 505h176M0 506h160M336 506h176M0 507h160M336 507h176M0 508h160M336 508h176M0 509h160M336 509h176M0 510h160M336 510h176M0 511h160M336 511h176" />
<path stroke="#dc6cf3" d="M256 16h16M256 17h16M256 18h16M256 19h16M256 20h16M256 21h16M256 22h16M256 23h16M256 24h16M256 25h16M256 26h16M256 27h16M256 28h16M256 29h16M256 30h16M256 31h16M240 32h32M240 33h32M240 34h32M240 35h32M240 36h32M240 37h32M240 38h32M240 39h32M240 40h32M240 41h32M240 42h32M240 43h32M240 44h32M240 45h32M240 46h32M240 47h32M224 48h16M224 49h16M224 50h16M224 51h16M224 52h16M224 53h16M224 54h16M224 55h16M224 56h16M224 57h16M224 58h16M224 59h16M224 60h16M224 61h16M224 62h16M224 63h16" />
<path stroke="#c625ed" d="M240 48h16M240 49h16M240 50h16M240 51h16M240 52h16M240 53h16M240 54h16M240 55h16M240 56h16M240 57h16M240 58h16M240 59h16M240 60h16M240 61h16M240 62h16M240 63h16M224 64h32M224 65h32M224 66h32M224 67h32M224 68h32M224 69h32M224 70h32M224 71h32M224 72h32M224 73h32M224 74h32M224 75h32M224 76h32M224 77h32M224 78h32M224 79h32M224 80h32M224 81h32M224 82h32M224 83h32M224 84h32M224 85h32M224 86h32M224 87h32M224 88h32M224 89h32M224 90h32M224 91h32M224 92h32M224 93h32M224 94h32M224 95h32M240 96h16M240 97h16M240 98h16M240 99h16M240 100h16M240 101h16M240 102h16M240 103h16M240 104h16M240 105h16M240 106h16M240 107h16M240 108h16M240 109h16M240 110h16M240 111h16" />
<path stroke="#9f24ec" d="M256 48h16M256 49h16M256 50h16M256 51h16M256 52h16M256 53h16M256 54h16M256 55h16M256 56h16M256 57h16M256 58h16M256 59h16M256 60h16M256 61h16M256 62h16M256 63h16" />
<path stroke="#1a1b1c" d="M208 64h16M256 64h32M208 65h16M256 65h32M208 66h16M256 66h32M208 67h16M256 67h32M208 68h16M256 68h32M208 69h16M256 69h32M208 70h16M256 70h32M208 71h16M256 71h32M208 72h16M256 72h32M208 73h16M256 73h32M208 74h16M256 74h32M208 75h16M256 75h32M208 76h16M256 76h32M208 77h16M256 77h32M208 78h16M256 78h32M208 79h16M256 79h32M192 80h32M272 80h32M192 81h32M272 81h32M192 82h32M272 82h32M192 83h32M272 83h32M192 84h32M272 84h32M192 85h32M272 85h32M192 86h32M272 86h32M192 87h32M272 87h32M192 88h32M272 88h32M192 89h32M272 89h32M192 90h32M272 90h32M192 91h32M272 91h32M192 92h32M272 92h32M192 93h32M272 93h32M192 94h32M272 94h32M192 95h32M272 95h32M192 96h16M224 96h16M288 96h16M192 97h16M224 97h16M288 97h16M192 98h16M224 98h16M288 98h16M192 99h16M224 99h16M288 99h16M192 100h16M224 100h16M288 100h16M192 101h16M224 101h16M288 101h16M192 102h16M224 102h16M288 102h16M192 103h16M224 103h16M288 103h16M192 104h16M224 104h16M288 104h16M192 105h16M224 105h16M288 105h16M192 106h16M224 106h16M288 106h16M192 107h16M224 107h16M288 107h16M192 108h16M224 108h16M288 108h16M192 109h16M224 109h16M288 109h16M192 110h16M224 110h16M288 110h16M192 111h16M224 111h16M288 111h16M192 112h16M240 112h16M288 112h16M192 113h16M240 113h16M288 113h16M192 114h16M240 114h16M288 114h16M192 115h16M240 115h16M288 115h16M192 116h16M240 116h16M288 116h16M192 117h16M240 117h16M288 117h16M192 118h16M240 118h16M288 118h16M192 119h16M240 119h16M288 119h16M192 120h16M240 120h16M288 120h16M192 121h16M240 121h16M288 121h16M192 122h16M240 122h16M288 122h16M192 123h16M240 123h16M288 123h16M192 124h16M240 124h16M288 124h16M192 125h16M240 125h16M288 125h16M192 126h16M240 126h16M288 126h16M192 127h16M240 127h16M288 127h16M176 128h144M176 129h144M176 130h144M176 131h144M176 132h144M176 133h144M176 134h144M176 135h144M176 136h144M176 137h144M176 138h144M176 139h144M176 140h144M176 141h144M176 142h144M176 143h144M160 144h176M160 145h176M160 146h176M160 147h176M160 148h176M160 149h176M160 150h176M160 151h176M160 152h176M160 153h176M160 154h176M160 155h176M160 156h176M160 157h176M160 158h176M160 159h176M176 160h64M256 160h64M176 161h64M256 161h64M176 162h64M256 162h64M176 163h64M256 163h64M176 164h64M256 164h64M176 165h64M256 165h64M176 166h64M256 166h64M176 167h64M256 167h64M176 168h64M256 168h64M176 169h64M256 169h64M176 170h64M256 170h64M176 171h64M256 171h64M176 172h64M256 172h64M176 173h64M256 173h64M176 174h64M256 174h64M176 175h64M256 175h64M208 176h16M272 176h16M208 177h16M272 177h16M208 178h16M272 178h16M208 179h16M272 179h16M208 180h16M272 180h16M208 181h16M272 181h16M208 182h16M272 182h16M208 183h16M272 183h16M208 184h16M272 184h16M208 185h16M272 185h16M208 186h16M272 186h16M208 187h16M272 187h16M208 188h16M272 188h16M208 189h16M272 189h16M208 190h16M272 190h16M208 191h16M272 191h16M208 192h16M240 192h16M272 192h16M208 193h16M240 193h16M272 193h16M208 194h16M240 194h16M272 194h16M208 195h16M240 195h16M272 195h16M208 196h16M240 196h16M272 196h16M208 197h16M240 197h16M272 197h16M208 198h16M240 198h16M272 198h16M208 199h16M240 199h16M272 199h16M208 200h16M240 200h16M272 200h16M208 201h16M240 201h16M272 201h16M208 202h16M240 202h16M272 202h16M208 203h16M240 203h16M272 203h16M208 204h16M240 204h16M272 204h16M208 205h16M240 205h16M272 205h16M208 206h16M240 206h16M272 206h16M208 207h16M240 207h16M272 207h16M192 208h16M256 208h16M192 209h16M256 209h16M192 210h16M256 210h16M192 211h16M256 211h16M192 212h16M256 212h16M192 213h16M256 213h16M192 214h16M256 214h16M192 215h16M256 215h16M192 216h16M256 216h16M192 217h16M256 217h16M192 218h16M256 218h16M192 219h16M256 219h16M192 220h16M256 220h16M192 221h16M256 221h16M192 222h16M256 222h16M192 223h16M256 223h16M192 224h16M224 224h16M256 224h16M288 224h16M192 225h16M224 225h16M256 225h16M288 225h16M192 226h16M224 226h16M256 226h16M288 226h16M192 227h16M224 227h16M256 227h16M288 227h16M192 228h16M224 228h16M256 228h16M288 228h16M192 229h16M224 229h16M256 229h16M288 229h16M192 230h16M224 230h16M256 230h16M288 230h16M192 231h16M224 231h16M256 231h16M288 231h16M192 232h16M224 232h16M256 232h16M288 232h16M192 233h16M224 233h16M256 233h16M288 233h16M192 234h16M224 234h16M256 234h16M288 234h16M192 235h16M224 235h16M256 235h16M288 235h16M192 236h16M224 236h16M256 236h16M288 236h16M192 237h16M224 237h16M256 237h16M288 237h16M192 238h16M224 238h16M256 238h16M288 238h16M192 239h16M224 239h16M256 239h16M288 239h16M208 240h80M208 241h80M208 242h80M208 243h80M208 244h80M208 245h80M208 246h80M208 247h80M208 248h80M208 249h80M208 250h80M208 251h80M208 252h80M208 253h80M208 254h80M208 255h80M224 256h16M256 256h16M224 257h16M256 257h16M224 258h16M256 258h16M224 259h16M256 259h16M224 260h16M256 260h16M224 261h16M256 261h16M224 262h16M256 262h16M224 263h16M256 263h16M224 264h16M256 264h16M224 265h16M256 265h16M224 266h16M256 266h16M224 267h16M256 267h16M224 268h16M256 268h16M224 269h16M256 269h16M224 270h16M256 270h16M224 271h16M256 271h16M224 272h16M256 272h16M224 273h16M256 273h16M224 274h16M256 274h16M224 275h16M256 275h16M224 276h16M256 276h16M224 277h16M256 277h16M224 278h16M256 278h16M224 279h16M256 279h16M224 280h16M256 280h16M224 281h16M256 281h16M224 282h16M256 282h16M224 283h16M256 283h16M224 284h16M256 284h16M224 285h16M256 285h16M224 286h16M256 286h16M224 287h16M256 287h16M224 288h16M256 288h16M224 289h16M256 289h16M224 290h16M256 290h16M224 291h16M256 291h16M224 292h16M256 292h16M224 293h16M256 293h16M224 294h16M256 294h16M224 295h16M256 295h16M224 296h16M256 296h16M224 297h16M256 297h16M224 298h16M256 298h16M224 299h16M256 299h16M224 300h16M256 300h16M224 301h16M256 301h16M224 302h16M256 302h16M224 303h16M256 303h16M224 304h16M256 304h16M224 305h16M256 305h16M224 306h16M256 306h16M224 307h16M256 307h16M224 308h16M256 308h16M224 309h16M256 309h16M224 310h16M256 310h16M224 311h16M256 311h16M224 312h16M256 312h16M224 313h16M256 313h16M224 314h16M256 314h16M224 315h16M256 315h16M224 316h16M256 316h16M224 317h16M256 317h16M224 318h16M256 318h16M224 319h16M256 319h16M224 320h16M256 320h16M224 321h16M256 321h16M224 322h16M256 322h16M224 323h16M256 323h16M224 324h16M256 324h16M224 325h16M256 325h16M224 326h16M256 326h16M224 327h16M256 327h16M224 328h16M256 328h16M224 329h16M256 329h16M224 330h16M256 330h16M224 331h16M256 331h16M224 332h16M256 332h16M224 333h16M256 333h16M224 334h16M256 334h16M224 335h16M256 335h16M160 336h32M224 336h16M256 336h16M288 336h32M160 337h32M224 337h16M256 337h16M288 337h32M160 338h32M224 338h16M256 338h16M288 338h32M160 339h32M224 339h16M256 339h16M288 339h32M160 340h32M224 340h16M256 340h16M288 340h32M160 341h32M224 341h16M256 341h16M288 341h32M160 342h32M224 342h16M256 342h16M288 342h32M160 343h32M224 343h16M256 343h16M288 343h32M160 344h32M224 344h16M256 344h16M288 344h32M160 345h32M224 345h16M256 345h16M288 345h32M160 346h32M224 346h16M256 346h16M288 346h32M160 347h32M224 347h16M256 347h16M288 347h32M160 348h32M224 348h16M256 348h16M288 348h32M160 349h32M224 349h16M256 349h16M288 349h32M160 350h32M224 350h16M256 350h16M288 350h32M160 351h32M224 351h16M256 351h16M288 351h32M160 352h16M192 352h48M256 352h32M304 352h16M160 353h16M192 353h48M256 353h32M304 353h16M160 354h16M192 354h48M256 354h32M304 354h16M160 355h16M192 355h48M256 355h32M304 355h16M160 356h16M192 356h48M256 356h32M304 356h16M160 357h16M192 357h48M256 357h32M304 357h16M160 358h16M192 358h48M256 358h32M304 358h16M160 359h16M192 359h48M256 359h32M304 359h16M160 360h16M192 360h48M256 360h32M304 360h16M160 361h16M192 361h48M256 361h32M304 361h16M160 362h16M192 362h48M256 362h32M304 362h16M160 363h16M192 363h48M256 363h32M304 363h16M160 364h16M192 364h48M256 364h32M304 364h16M160 365h16M192 365h48M256 365h32M304 365h16M160 366h16M192 366h48M256 366h32M304 366h16M160 367h16M192 367h48M256 367h32M304 367h16M160 368h16M304 368h16M160 369h16M304 369h16M160 370h16M304 370h16M160 371h16M304 371h16M160 372h16M304 372h16M160 373h16M304 373h16M160 374h16M304 374h16M160 375h16M304 375h16M160 376h16M304 376h16M160 377h16M304 377h16M160 378h16M304 378h16M160 379h16M304 379h16M160 380h16M304 380h16M160 381h16M304 381h16M160 382h16M304 382h16M160 383h16M304 383h16M160 384h16M192 384h16M272 384h16M304 384h16M160 385h16M192 385h16M272 385h16M304 385h16M160 386h16M192 386h16M272 386h16M304 386h16M160 387h16M192 387h16M272 387h16M304 387h16M160 388h16M192 388h16M272 388h16M304 388h16M160 389h16M192 389h16M272 389h16M304 389h16M160 390h16M192 390h16M272 390h16M304 390h16M160 391h16M192 391h16M272 391h16M304 391h16M160 392h16M192 392h16M272 392h16M304 392h16M160 393h16M192 393h16M272 393h16M304 393h16M160 394h16M192 394h16M272 394h16M304 394h16M160 395h16M192 395h16M272 395h16M304 395h16M160 396h16M192 396h16M272 396h16M304 396h16M160 397h16M192 397h16M272 397h16M304 397h16M160 398h16M192 398h16M272 398h16M304 398h16M160 399h16M192 399h16M272 399h16M304 399h16M160 400h16M192 400h16M272 400h16M304 400h16M160 401h16M192 401h16M272 401h16M304 401h16M160 402h16M192 402h16M272 402h16M304 402h16M160 403h16M192 403h16M272 403h16M304 403h16M160 404h16M192 404h16M272 404h16M304 404h16M160 405h16M192 405h16M272 405h16M304 405h16M160 406h16M192 406h16M272 406h16M304 406h16M160 407h16M192 407h16M272 407h16M304 407h16M160 408h16M192 408h16M272 408h16M304 408h16M160 409h16M192 409h16M272 409h16M304 409h16M160 410h16M192 410h16M272 410h16M304 410h16M160 411h16M192 411h16M272 411h16M304 411h16M160 412h16M192 412h16M272 412h16M304 412h16M160 413h16M192 413h16M272 413h16M304 413h16M160 414h16M192 414h16M272 414h16M304 414h16M160 415h16M192 415h16M272 415h16M304 415h16M160 416h16M192 416h16M272 416h16M304 416h16M160 417h16M192 417h16M272 417h16M304 417h16M160 418h16M192 418h16M272 418h16M304 418h16M160 419h16M192 419h16M272 419h16M304 419h16M160 420h16M192 420h16M272 420h16M304 420h16M160 421h16M192 421h16M272 421h16M304 421h16M160 422h16M192 422h16M272 422h16M304 422h16M160 423h16M192 423h16M272 423h16M304 423h16M160 424h16M192 424h16M272 424h16M304 424h16M160 425h16M192 425h16M272 425h16M304 425h16M160 426h16M192 426h16M272 426h16M304 426h16M160 427h16M192 427h16M272 427h16M304 427h16M160 428h16M192 428h16M272 428h16M304 428h16M160 429h16M192 429h16M272 429h16M304 429h16M160 430h16M192 430h16M272 430h16M304 430h16M160 431h16M192 431h16M272 431h16M304 431h16M160 432h16M192 432h16M272 432h16M304 432h16M160 433h16M192 433h16M272 433h16M304 433h16M160 434h16M192 434h16M272 434h16M304 434h16M160 435h16M192 435h16M272 435h16M304 435h16M160 436h16M192 436h16M272 436h16M304 436h16M160 437h16M192 437h16M272 437h16M304 437h16M160 438h16M192 438h16M272 438h16M304 438h16M160 439h16M192 439h16M272 439h16M304 439h16M160 440h16M192 440h16M272 440h16M304 440h16M160 441h16M192 441h16M272 441h16M304 441h16M160 442h16M192 442h16M272 442h16M304 442h16M160 443h16M192 443h16M272 443h16M304 443h16M160 444h16M192 444h16M272 444h16M304 444h16M160 445h16M192 445h16M272 445h16M304 445h16M160 446h16M192 446h16M272 446h16M304 446h16M160 447h16M192 447h16M272 447h16M304 447h16M160 448h16M192 448h16M272 448h16M304 448h16M160 449h16M192 449h16M272 449h16M304 449h16M160 450h16M192 450h16M272 450h16M304 450h16M160 451h16M192 451h16M272 451h16M304 451h16M160 452h16M192 452h16M272 452h16M304 452h16M160 453h16M192 453h16M272 453h16M304 453h16M160 454h16M192 454h16M272 454h16M304 454h16M160 455h16M192 455h16M272 455h16M304 455h16M160 456h16M192 456h16M272 456h16M304 456h16M160 457h16M192 457h16M272 457h16M304 457h16M160 458h16M192 458h16M272 458h16M304 458h16M160 459h16M192 459h16M272 459h16M304 459h16M160 460h16M192 460h16M272 460h16M304 460h16M160 461h16M192 461h16M272 461h16M304 461h16M160 462h16M192 462h16M272 462h16M304 462h16M160 463h16M192 463h16M272 463h16M304 463h16M160 464h16M192 464h16M272 464h16M304 464h16M160 465h16M192 465h16M272 465h16M304 465h16M160 466h16M192 466h16M272 466h16M304 466h16M160 467h16M192 467h16M272 467h16M304 467h16M160 468h16M192 468h16M272 468h16M304 468h16M160 469h16M192 469h16M272 469h16M304 469h16M160 470h16M192 470h16M272 470h16M304 470h16M160 471h16M192 471h16M272 471h16M304 471h16M160 472h16M192 472h16M272 472h16M304 472h16M160 473h16M192 473h16M272 473h16M304 473h16M160 474h16M192 474h16M272 474h16M304 474h16M160 475h16M192 475h16M272 475h16M304 475h16M160 476h16M192 476h16M272 476h16M304 476h16M160 477h16M192 477h16M272 477h16M304 477h16M160 478h16M192 478h16M272 478h16M304 478h16M160 479h16M192 479h16M272 479h16M304 479h16M160 480h16M192 480h16M272 480h16M304 480h16M160 481h16M192 481h16M272 481h16M304 481h16M160 482h16M192 482h16M272 482h16M304 482h16M160 483h16M192 483h16M272 483h16M304 483h16M160 484h16M192 484h16M272 484h16M304 484h16M160 485h16M192 485h16M272 485h16M304 485h16M160 486h16M192 486h16M272 486h16M304 486h16M160 487h16M192 487h16M272 487h16M304 487h16M160 488h16M192 488h16M272 488h16M304 488h16M160 489h16M192 489h16M272 489h16M304 489h16M160 490h16M192 490h16M272 490h16M304 490h16M160 491h16M192 491h16M272 491h16M304 491h16M160 492h16M192 492h16M272 492h16M304 492h16M160 493h16M192 493h16M272 493h16M304 493h16M160 494h16M192 494h16M272 494h16M304 494h16M160 495h16M192 495h16M272 495h16M304 495h16M160 496h16M192 496h16M272 496h16M304 496h16M160 497h16M192 497h16M272 497h16M304 497h16M160 498h16M192 498h16M272 498h16M304 498h16M160 499h16M192 499h16M272 499h16M304 499h16M160 500h16M192 500h16M272 500h16M304 500h16M160 501h16M192 501h16M272 501h16M304 501h16M160 502h16M192 502h16M272 502h16M304 502h16M160 503h16M192 503h16M272 503h16M304 503h16M160 504h16M192 504h16M272 504h16M304 504h16M160 505h16M192 505h16M272 505h16M304 505h16M160 506h16M192 506h16M272 506h16M304 506h16M160 507h16M192 507h16M272 507h16M304 507h16M160 508h16M192 508h16M272 508h16M304 508h16M160 509h16M192 509h16M272 509h16M304 509h16M160 510h16M192 510h16M272 510h16M304 510h16M160 511h16M192 511h16M272 511h16M304 511h16" />
<path stroke="#d4dce0" d="M256 80h16M256 81h16M256 82h16M256 83h16M256 84h16M256 85h16M256 86h16M256 87h16M256 88h16M256 89h16M256 90h16M256 91h16M256 92h16M256 93h16M256 94h16M256 95h16M208 96h16M256 96h32M208 97h16M256 97h32M208 98h16M256 98h32M208 99h16M256 99h32M208 100h16M256 100h32M208 101h16M256 101h32M208 102h16M256 102h32M208 103h16M256 103h32M208 104h16M256 104h32M208 105h16M256 105h32M208 106h16M256 106h32M208 107h16M256 107h32M208 108h16M256 108h32M208 109h16M256 109h32M208 110h16M256 110h32M208 111h16M256 111h32M208 112h32M256 112h32M208 113h32M256 113h32M208 114h32M256 114h32M208 115h32M256 115h32M208 116h32M256 116h32M208 117h32M256 117h32M208 118h32M256 118h32M208 119h32M256 119h32M208 120h32M256 120h32M208 121h32M256 121h32M208 122h32M256 122h32M208 123h32M256 123h32M208 124h32M256 124h32M208 125h32M256 125h32M208 126h32M256 126h32M208 127h32M256 127h32M240 160h16M352 160h16M240 161h16M352 161h16M240 162h16M352 162h16M240 163h16M352 163h16M240 164h16M352 164h16M240 165h16M352 165h16M240 166h16M352 166h16M240 167h16M352 167h16M240 168h16M352 168h16M240 169h16M352 169h16M240 170h16M352 170h16M240 171h16M352 171h16M240 172h16M352 172h16M240 173h16M352 173h16M240 174h16M352 174h16M240 175h16M352 175h16M224 176h48M352 176h16M224 177h48M352 177h16M224 178h48M352 178h16M224 179h48M352 179h16M224 180h48M352 180h16M224 181h48M352 181h16M224 182h48M352 182h16M224 183h48M352 183h16M224 184h48M352 184h16M224 185h48M352 185h16M224 186h48M352 186h16M224 187h48M352 187h16M224 188h48M352 188h16M224 189h48M352 189h16M224 190h48M352 190h16M224 191h48M352 191h16M224 192h16M256 192h16M224 193h16M256 193h16M224 194h16M256 194h16M224 195h16M256 195h16M224 196h16M256 196h16M224 197h16M256 197h16M224 198h16M256 198h16M224 199h16M256 199h16M224 200h16M256 200h16M224 201h16M256 201h16M224 202h16M256 202h16M224 203h16M256 203h16M224 204h16M256 204h16M224 205h16M256 205h16M224 206h16M256 206h16M224 207h16M256 207h16M208 208h48M208 209h48M208 210h48M208 211h48M208 212h48M208 213h48M208 214h48M208 215h48M208 216h48M208 217h48M208 218h48M208 219h48M208 220h48M208 221h48M208 222h48M208 223h48M208 224h16M240 224h16M272 224h16M208 225h16M240 225h16M272 225h16M208 226h16M240 226h16M272 226h16M208 227h16M240 227h16M272 227h16M208 228h16M240 228h16M272 228h16M208 229h16M240 229h16M272 229h16M208 230h16M240 230h16M272 230h16M208 231h16M240 231h16M272 231h16M208 232h16M240 232h16M272 232h16M208 233h16M240 233h16M272 233h16M208 234h16M240 234h16M272 234h16M208 235h16M240 235h16M272 235h16M208 236h16M240 236h16M272 236h16M208 237h16M240 237h16M272 237h16M208 238h16M240 238h16M272 238h16M208 239h16M240 239h16M272 239h16M240 272h16M240 273h16M240 274h16M240 275h16M240 276h16M240 277h16M240 278h16M240 279h16M240 280h16M240 281h16M240 282h16M240 283h16M240 284h16M240 285h16M240 286h16M240 287h16M240 288h16M240 289h16M240 290h16M240 291h16M240 292h16M240 293h16M240 294h16M240 295h16M240 296h16M240 297h16M240 298h16M240 299h16M240 300h16M240 301h16M240 302h16M240 303h16M240 304h16M240 305h16M240 306h16M240 307h16M240 308h16M240 309h16M240 310h16M240 311h16M240 312h16M240 313h16M240 314h16M240 315h16M240 316h16M240 317h16M240 318h16M240 319h16M240 320h16M240 321h16M240 322h16M240 323h16M240 324h16M240 325h16M240 326h16M240 327h16M240 328h16M240 329h16M240 330h16M240 331h16M240 332h16M240 333h16M240 334h16M240 335h16M240 336h16M240 337h16M240 338h16M240 339h16M240 340h16M240 341h16M240 342h16M240 343h16M240 344h16M240 345h16M240 346h16M240 347h16M240 348h16M240 349h16M240 350h16M240 351h16M240 352h16M240 353h16M240 354h16M240 355h16M240 356h16M240 357h16M240 358h16M240 359h16M240 360h16M240 361h16M240 362h16M240 363h16M240 364h16M240 365h16M240 366h16M240 367h16M320 384h16M320 385h16M320 386h16M320 387h16M320 388h16M320 389h16M320 390h16M320 391h16M320 392h16M320 393h16M320 394h16M320 395h16M320 396h16M320 397h16M320 398h16M320 399h16M320 400h16M320 401h16M320 402h16M320 403h16M320 404h16M320 405h16M320 406h16M320 407h16M320 408h16M320 409h16M320 410h16M320 411h16M320 412h16M320 413h16M320 414h16M320 415h16M320 416h16M320 417h16M320 418h16M320 419h16M320 420h16M320 421h16M320 422h16M320 423h16M320 424h16M320 425h16M320 426h16M320 427h16M320 428h16M320 429h16M320 430h16M320 431h16M176 432h16M288 432h16M320 432h16M176 433h16M288 433h16M320 433h16M176 434h16M288 434h16M320 434h16M176 435h16M288 435h16M320 435h16M176 436h16M288 436h16M320 436h16M176 437h16M288 437h16M320 437h16M176 438h16M288 438h16M320 438h16M176 439h16M288 439h16M320 439h16M176 440h16M288 440h16M320 440h16M176 441h16M288 441h16M320 441h16M176 442h16M288 442h16M320 442h16M176 443h16M288 443h16M320 443h16M176 444h16M288 444h16M320 444h16M176 445h16M288 445h16M320 445h16M176 446h16M288 446h16M320 446h16M176 447h16M288 447h16M320 447h16M176 448h16M288 448h16M320 448h16M176 449h16M288 449h16M320 449h16M176 450h16M288 450h16M320 450h16M176 451h16M288 451h16M320 451h16M176 452h16M288 452h16M320 452h16M176 453h16M288 453h16M320 453h16M176 454h16M288 454h16M320 454h16M176 455h16M288 455h16M320 455h16M176 456h16M288 456h16M320 456h16M176 457h16M288 457h16M320 457h16M176 458h16M288 458h16M320 458h16M176 459h16M288 459h16M320 459h16M176 460h16M288 460h16M320 460h16M176 461h16M288 461h16M320 461h16M176 462h16M288 462h16M320 462h16M176 463h16M288 463h16M320 463h16M176 464h16M288 464h16M320 464h16M176 465h16M288 465h16M320 465h16M176 466h16M288 466h16M320 466h16M176 467h16M288 467h16M320 467h16M176 468h16M288 468h16M320 468h16M176 469h16M288 469h16M320 469h16M176 470h16M288 470h16M320 470h16M176 471h16M288 471h16M320 471h16M176 472h16M288 472h16M320 472h16M176 473h16M288 473h16M320 473h16M176 474h16M288 474h16M320 474h16M176 475h16M288 475h16M320 475h16M176 476h16M288 476h16M320 476h16M176 477h16M288 477h16M320 477h16M176 478h16M288 478h16M320 478h16M176 479h16M288 479h16M320 479h16M176 480h16M288 480h16M320 480h16M176 481h16M288 481h16M320 481h16M176 482h16M288 482h16M320 482h16M176 483h16M288 483h16M320 483h16M176 484h16M288 484h16M320 484h16M176 485h16M288 485h16M320 485h16M176 486h16M288 486h16M320 486h16M176 487h16M288 487h16M320 487h16M176 488h16M288 488h16M320 488h16M176 489h16M288 489h16M320 489h16M176 490h16M288 490h16M320 490h16M176 491h16M288 491h16M320 491h16M176 492h16M288 492h16M320 492h16M176 493h16M288 493h16M320 493h16M176 494h16M288 494h16M320 494h16M176 495h16M288 495h16M320 495h16M176 496h16M288 496h16M320 496h16M176 497h16M288 497h16M320 497h16M176 498h16M288 498h16M320 498h16M176 499h16M288 499h16M320 499h16M176 500h16M288 500h16M320 500h16M176 501h16M288 501h16M320 501h16M176 502h16M288 502h16M320 502h16M176 503h16M288 503h16M320 503h16M176 504h16M288 504h16M320 504h16M176 505h16M288 505h16M320 505h16M176 506h16M288 506h16M320 506h16M176 507h16M288 507h16M320 507h16M176 508h16M288 508h16M320 508h16M176 509h16M288 509h16M320 509h16M176 510h16M288 510h16M320 510h16M176 511h16M288 511h16M320 511h16" />
<path stroke="#9ca7ae" d="M336 192h16M336 193h16M336 194h16M336 195h16M336 196h16M336 197h16M336 198h16M336 199h16M336 200h16M336 201h16M336 202h16M336 203h16M336 204h16M336 205h16M336 206h16M336 207h16" />
<path stroke="#532a08" d="M272 208h48M272 209h48M272 210h48M272 211h48M272 212h48M272 213h48M272 214h48M272 215h48M272 216h48M272 217h48M272 218h48M272 219h48M272 220h48M272 221h48M272 222h48M272 223h48" />
<path stroke="#f42934" d="M320 208h16M320 209h16M320 210h16M320 211h16M320 212h16M320 213h16M320 214h16M320 215h16M320 216h16M320 217h16M320 218h16M320 219h16M320 220h16M320 221h16M320 222h16M320 223h16" />
<path stroke="#6e767a" d="M240 256h16M240 257h16M240 258h16M240 259h16M240 260h16M240 261h16M240 262h16M240 263h16M240 264h16M240 265h16M240 266h16M240 267h16M240 268h16M240 269h16M240 270h16M240 271h16" />
<path stroke="#ef7722" d="M176 352h16M176 353h16M176 354h16M176 355h16M176 356h16M176 357h16M176 358h16M176 359h16M176 360h16M176 361h16M176 362h16M176 363h16M176 364h16M176 365h16M176 366h16M176 367h16M176 368h128M176 369h128M176 370h128M176 371h128M176 372h128M176 373h128M176 374h128M176 375h128M176 376h128M176 377h128M176 378h128M176 379h128M176 380h128M176 381h128M176 382h128M176 383h128M176 384h16M208 384h64M288 384h16M176 385h16M208 385h64M288 385h16M176 386h16M208 386h64M288 386h16M176 387h16M208 387h64M288 387h16M176 388h16M208 388h64M288 388h16M176 389h16M208 389h64M288 389h16M176 390h16M208 390h64M288 390h16M176 391h16M208 391h64M288 391h16M176 392h16M208 392h64M288 392h16M176 393h16M208 393h64M288 393h16M176 394h16M208 394h64M288 394h16M176 395h16M208 395h64M288 395h16M176 396h16M208 396h64M288 396h16M176 397h16M208 397h64M288 397h16M176 398h16M208 398h64M288 398h16M176 399h16M208 399h64M288 399h16M176 400h16M224 400h32M288 400h16M176 401h16M224 401h32M288 401h16M176 402h16M224 402h32M288 402h16M176 403h16M224 403h32M288 403h16M176 404h16M224 404h32M288 404h16M176 405h16M224 405h32M288 405h16M176 406h16M224 406h32M288 406h16M176 407h16M224 407h32M288 407h16M176 408h16M224 408h32M288 408h16M176 409h16M224 409h32M288 409h16M176 410h16M224 410h32M288 410h16M176 411h16M224 411h32M288 411h16M176 412h16M224 412h32M288 412h16M176 413h16M224 413h32M288 413h16M176 414h16M224 414h32M288 414h16M176 415h16M224 415h32M288 415h16M208 416h64M208 417h64M208 418h64M208 419h64M208 420h64M208 421h64M208 422h64M208 423h64M208 424h64M208 425h64M208 426h64M208 427h64M208 428h64M208 429h64M208 430h64M208 431h64M224 432h32M224 433h32M224 434h32M224 435h32M224 436h32M224 437h32M224 438h32M224 439h32M224 440h32M224 441h32M224 442h32M224 443h32M224 444h32M224 445h32M224 446h32M224 447h32M208 448h64M208 449h64M208 450h64M208 451h64M208 452h64M208 453h64M208 454h64M208 455h64M208 456h64M208 457h64M208 458h64M208 459h64M208 460h64M208 461h64M208 462h64M208 463h64M224 464h32M224 465h32M224 466h32M224 467h32M224 468h32M224 469h32M224 470h32M224 471h32M224 472h32M224 473h32M224 474h32M224 475h32M224 476h32M224 477h32M224 478h32M224 479h32M208 480h64M208 481h64M208 482h64M208 483h64M208 484h64M208 485h64M208 486h64M208 487h64M208 488h64M208 489h64M208 490h64M208 491h64M208 492h64M208 493h64M208 494h64M208 495h64M224 496h32M224 497h32M224 498h32M224 499h32M224 500h32M224 501h32M224 502h32M224 503h32M224 504h32M224 505h32M224 506h32M224 507h32M224 508h32M224 509h32M224 510h32M224 511h32" />
<path stroke="#cb651b" d="M288 352h16M288 353h16M288 354h16M288 355h16M288 356h16M288 357h16M288 358h16M288 359h16M288 360h16M288 361h16M288 362h16M288 363h16M288 364h16M288 365h16M288 366h16M288 367h16M208 400h16M256 400h16M208 401h16M256 401h16M208 402h16M256 402h16M208 403h16M256 403h16M208 404h16M256 404h16M208 405h16M256 405h16M208 406h16M256 406h16M208 407h16M256 407h16M208 408h16M256 408h16M208 409h16M256 409h16M208 410h16M256 410h16M208 411h16M256 411h16M208 412h16M256 412h16M208 413h16M256 413h16M208 414h16M256 414h16M208 415h16M256 415h16M208 432h16M256 432h16M208 433h16M256 433h16M208 434h16M256 434h16M208 435h16M256 435h16M208 436h16M256 436h16M208 437h16M256 437h16M208 438h16M256 438h16M208 439h16M256 439h16M208 440h16M256 440h16M208 441h16M256 441h16M208 442h16M256 442h16M208 443h16M256 443h16M208 444h16M256 444h16M208 445h16M256 445h16M208 446h16M256 446h16M208 447h16M256 447h16M208 464h16M208 465h16M208 466h16M208 467h16M208 468h16M208 469h16M208 470h16M208 471h16M208 472h16M208 473h16M208 474h16M208 475h16M208 476h16M208 477h16M208 478h16M208 479h16" />
<path stroke="#904711" d="M176 416h16M288 416h16M176 417h16M288 417h16M176 418h16M288 418h16M176 419h16M288 419h16M176 420h16M288 420h16M176 421h16M288 421h16M176 422h16M288 422h16M176 423h16M288 423h16M176 424h16M288 424h16M176 425h16M288 425h16M176 426h16M288 426h16M176 427h16M288 427h16M176 428h16M288 428h16M176 429h16M288 429h16M176 430h16M288 430h16M176 431h16M288 431h16M256 464h16M256 465h16M256 466h16M256 467h16M256 468h16M256 469h16M256 470h16M256 471h16M256 472h16M256 473h16M256 474h16M256 475h16M256 476h16M256 477h16M256 478h16M256 479h16M208 496h16M256 496h16M208 497h16M256 497h16M208 498h16M256 498h16M208 499h16M256 499h16M208 500h16M256 500h16M208 501h16M256 501h16M208 502h16M256 502h16M208 503h16M256 503h16M208 504h16M256 504h16M208 505h16M256 505h16M208 506h16M256 506h16M208 507h16M256 507h16M208 508h16M256 508h16M208 509h16M256 509h16M208 510h16M256 510h16M208 511h16M256 511h16" />
</svg>