<svg xmlns="http://www.w3.org/2000/svg" viewBox="0 -0.5 512 512" shape-rendering="crispEdges">
<metadata>Made with Pixels to Svg https://codepen.io/shshaw/pen/XbxvNj</metadata>
<path stroke="#fafafa" d="M0 0h192M304 0h208M0 1h192M304 1h208M0 2h192M304 2h208M0 3h192M304 3h208M0 4h192M304 4h208M0 5h192M304 5h208M0 6h192M304 6h208M0 7h192M304 7h208M0 8h192M304 8h208M0 9h192M304 9h208M0 10h192M304 10h208M0 11h192M304 11h208M0 12h192M304 12h208M0 13h192M304 13h208M0 14h192M304 14h208M0 15h192M304 15h208M0 16h192M304 16h208M0 17h192M304 17h208M0 18h192M304 18h208M0 19h192M304 19h208M0 20h192M304 20h208M0 21h192M304 21h208M0 22h192M304 22h208M0 23h192M304 23h208M0 24h192M304 24h208M0 25h192M304 25h208M0 26h192M304 26h208M0 27h192M304 27h208M0 28h192M304 28h208M0 29h192M304 29h208M0 30h192M304 30h208M0 31h192M304 31h208M0 32h192M304 32h208M0 33h192M304 33h208M0 34h192M304 34h208M0 35h192M304 35h208M0 36h192M304 36h208M0 37h192M304 37h208M0 38h192M304 38h208M0 39h192M304 39h208M0 40h192M304 40h208M0 41h192M304 41h208M0 42h192M304 42h208M0 43h192M304 43h208M0 44h192M304 44h208M0 45h192M304 45h208M0 46h192M304 46h208M0 47h192M304 47h208M0 48h192M304 48h208M0 49h192M304 49h208M0 50h192M304 50h208M0 51h192M304 51h208M0 52h192M304 52h208M0 53h192M304 53h208M0 54h192M304 54h208M0 55h192M304 55h208M0 56h192M304 56h208M0 57h192M304 57h208M0 58h192M304 58h208M0 59h192M304 59h208M0 60h192M304 60h208M0 61h192M304 61h208M0 62h192M304 62h208M0 63h192M304 63h208M0 64h192M304 64h208M0 65h192M304 65h208M0 66h192M304 66h208M0 67h192M304 67h208M0 68h192M304 68h208M0 69h192M304 69h208M0 70h192M304 70h208M0 71h192M304 71h208M0 72h192M304 72h208M0 73h192M304 73h208M0 74h192M304 74h208M0 75h192M304 75h208M0 76h192M304 76h208M0 77h192M304 77h208M0 78h192M304 78h208M0 79h192M304 79h208M0 80h160M336 80h176M0 81h160M336 81h176M0 82h160M336 82h176M0 83h160M336 83h176M0 84h160M336 84h176M0 85h160M336 85h176M0 86h160M336 86h176M0 87h160M336 87h176M0 88h160M336 88h176M0 89h160M336 89h176M0 90h160M336 90h176M0 91h160M336 91h176M0 92h160M336 92h176M0 93h160M336 93h176M0 94h160M336 94h176M0 95h160M336 95h176M0 96h160M336 96h176M0 97h160M336 97h176M0 98h160M336 98h176M0 99h160M336 99h176M0 100h160M336 100h176M0 101h160M336 101h176M0 102h160M336 102h176M0 103h160M336 103h176M0 104h160M336 104h176M0 105h160M336 105h176M0 106h160M336 106h176M0 107h160M336 107h176M0 108h160M336 108h176M0 109h160M336 109h176M0 110h160M336 110h176M0 111h160M336 111h176M0 112h192M304 112h208M0 113h192M304 113h208M0 114h192M304 114h208M0 115h192M304 115h208M0 116h192M304 116h208M0 117h192M304 117h208M0 118h192M304 118h208M0 119h192M304 119h208M0 120h192M304 120h208M0 121h192M304 121h208M0 122h192M304 122h208M0 123h192M304 123h208M0 124h192M304 124h208M0 125h192M304 125h208M0 126h192M304 126h208M0 127h192M304 127h208M0 128h160M336 128h176M0 129h160M336 129h176M0 130h160M336 130h176M0 131h160M336 131h176M0 132h160M336 132h176M0 133h160M336 133h176M0 134h160M336 134h176M0 135h160M336 135h176M0 136h160M336 136h176M0 137h160M336 137h176M0 138h160M336 138h176M0 139h160M336 139h176M0 140h160M336 140h176M0 141h160M336 141h176M0 142h160M336 142h176M0 143h160M336 143h176M0 144h160M336 144h176M0 145h160M336 145h176M0 146h160M336 146h176M0 147h160M336 147h176M0 148h160M336 148h176M0 149h160M336 149h176M0 150h160M336 150h176M0 151h160M336 151h176M0 152h160M336 152h176M0 153h160M336 153h176M0 154h160M336 154h176M0 155h160M336 155h176M0 156h160M336 156h176M0 157h160M336 157h176M0 158h160M336 158h176M0 159h160M336 159h176M0 160h160M336 160h176M0 161h160M336 161h176M0 162h160M336 162h176M0 163h160M336 163h176M0 164h160M336 164h176M0 165h160M336 165h176M0 166h160M336 166h176M0 167h160M336 167h176M0 168h160M336 168h176M0 169h160M336 169h176M0 170h160M336 170h176M0 171h160M336 171h176M0 172h160M336 172h176M0 173h160M336 173h176M0 174h160M336 174h176M0 175h160M336 175h176M0 176h192M304 176h208M0 177h192M304 177h208M0 178h192M304 178h208M0 179h192M304 179h208M0 180h192M304 180h208M0 181h192M304 181h208M0 182h192M304 182h208M0 183h192M304 183h208M0 184h192M304 184h208M0 185h192M304 185h208M0 186h192M304 186h208M0 187h192M304 187h208M0 188h192M304 188h208M0 189h192M304 189h208M0 190h192M304 190h208M0 191h192M304 191h208M0 192h192M304 192h208M0 193h192M304 193h208M0 194h192M304 194h208M0 195h192M304 195h208M0 196h192M304 196h208M0 197h192M304 197h208M0 198h192M304 198h208M0 199h192M304 199h208M0 200h192M304 200h208M0 201h192M304 201h208M0 202h192M304 202h208M0 203h192M304 203h208M0 204h192M304 204h208M0 205h192M304 205h208M0 206h192M304 206h208M0 207h192M304 207h208M0 208h192M304 208h208M0 209h192M304 209h208M0 210h192M304 210h208M0 211h192M304 211h208M0 212h192M304 212h208M0 213h192M304 213h208M0 214h192M304 214h208M0 215h192M304 215h208M0 216h192M304 216h208M0 217h192M304 217h208M0 218h192M304 218h208M0 219h192M304 219h208M0 220h192M304 220h208M0 221h192M304 221h208M0 222h192M304 222h208M0 223h192M304 223h208M0 224h192M304 224h208M0 225h192M304 225h208M0 226h192M304 226h208M0 227h192M304 227h208M0 228h192M304 228h208M0 229h192M304 229h208M0 230h192M304 230h208M0 231h192M304 231h208M0 232h192M304 232h208M0 233h192M304 233h208M0 234h192M304 234h208M0 235h192M304 235h208M0 236h192M304 236h208M0 237h192M304 237h208M0 238h192M304 238h208M0 239h192M304 239h208M0 240h192M304 240h208M0 241h192M304 241h208M0 242h192M304 242h208M0 243h192M304 243h208M0 244h192M304 244h208M0 245h192M304 245h208M0 246h192M304 246h208M0 247h192M304 247h208M0 248h192M304 248h208M0 249h192M304 249h208M0 250h192M304 250h208M0 251h192M304 251h208M0 252h192M304 252h208M0 253h192M304 253h208M0 254h192M304 254h208M0 255h192M304 255h208M0 256h224M272 256h240M0 257h224M272 257h240M0 258h224M272 258h240M0 259h224M272 259h240M0 260h224M272 260h240M0 261h224M272 261h240M0 262h224M272 262h240M0 263h224M272 263h240M0 264h224M272 264h240M0 265h224M272 265h240M0 266h224M272 266h240M0 267h224M272 267h240M0 268h224M272 268h240M0 269h224M272 269h240M0 270h224M272 270h240M0 271h224M272 271h240M0 272h224M272 272h240M0 273h224M272 273h240M0 274h224M272 274h240M0 275h224M272 275h240M0 276h224M272 276h240M0 277h224M272 277h240M0 278h224M272 278h240M0 279h224M272 279h240M0 280h224M272 280h240M0 281h224M272 281h240M0 282h224M272 282h240M0 283h224M272 283h240M0 284h224M272 284h240M0 285h224M272 285h240M0 286h224M272 286h240M0 287h224M272 287h240M0 288h208M288 288h224M0 289h208M288 289h224M0 290h208M288 290h224M0 291h208M288 291h224M0 292h208M288 292h224M0 293h208M288 293h224M0 294h208M288 294h224M0 295h208M288 295h224M0 296h208M288 296h224M0 297h208M288 297h224M0 298h208M288 298h224M0 299h208M288 299h224M0 300h208M288 300h224M0 301h208M288 301h224M0 302h208M288 302h224M0 303h208M288 303h224M0 304h224M272 304h240M0 305h224M272 305h240M0 306h224M272 306h240M0 307h224M272 307h240M0 308h224M272 308h240M0 309h224M272 309h240M0 310h224M272 310h240M0 311h224M272 311h240M0 312h224M272 312h240M0 313h224M272 313h240M0 314h224M272 314h240M0 315h224M272 315h240M0 316h224M272 316h240M0 317h224M272 317h240M0 318h224M272 318h240M0 319h224M272 319h240M0 320h224M272 320h240M0 321h224M272 321h240M0 322h224M272 322h240M0 323h224M272 323h240M0 324h224M272 324h240M0 325h224M272 325h240M0 326h224M272 326h240M0 327h224M272 327h240M0 328h224M272 328h240M0 329h224M272 329h240M0 330h224M272 330h240M0 331h224M272 331h240M0 332h224M272 332h240M0 333h224M272 333h240M0 334h224M272 334h240M0 335h224M272 335h240M0 336h176M304 336h208M0 337h176M304 337h208M0 338h176M304 338h208M0 339h176M304 339h208M0 340h176M304 340h208M0 341h176M304 341h208M0 342h176M304 342h208M0 343h176M304 343h208M0 344h176M304 344h208M0 345h176M304 345h208M0 346h176M304 346h208M0 347h176M304 347h208M0 348h176M304 348h208M0 349h176M304 349h208M0 350h176M304 350h208M0 351h176M304 351h208M0 352h160M320 352h192M0 353h160M320 353h192M0 354h160M320 354h192M0 355h160M320 355h192M0 356h160M320 356h192M0 357h160M320 357h192M0 358h160M320 358h192M0 359h160M320 359h192M0 360h160M320 360h192M0 361h160M320 361h192M0 362h160M320 362h192M0 363h160M320 363h192M0 364h160M320 364h192M0 365h160M320 365h192M0 366h160M320 366h192M0 367h160M320 367h192M0 368h160M320 368h192M0 369h160M320 369h192M0 370h160M320 370h192M0 371h160M320 371h192M0 372h160M320 372h192M0 373h160M320 373h192M0 374h160M320 374h192M0 375h160M320 375h192M0 376h160M320 376h192M0 377h160M320 377h192M0 378h160M320 378h192M0 379h160M320 379h192M0 380h160M320 380h192M0 381h160M320 381h192M0 382h160M320 382h192M0 383h160M320 383h192M0 384h160M336 384h176M0 385h160M336 385h176M0 386h160M336 386h176M0 387h160M336 387h176M0 388h160M336 388h176M0 389h160M336 389h176M0 390h160M336 390h176M0 391h160M336 391h176M0 392h160M336 392h176M0 393h160M336 393h176M0 394h160M336 394h176M0 395h160M336 395h176M0 396h160M336 396h176M0 397h160M336 397h176M0 398h160M336 398h176M0 399h160M336 399h176M0 400h160M336 400h176M0 401h160M336 401h176M0 402h160M336 402h176M0 403h160M336 403h176M0 404h160M336 404h176M0 405h160M336 405h176M0 406h160M336 406h176M0 407h160M336 407h176M0 408h160M336 408h176M0 409h160M336 409h176M0 410h160M336 410h176M0 411h160M336 411h176M0 412h160M336 412h176M0 413h160M336 413h176M0 414h160M336 414h176M0 415h160M336 415h176M0 416h160M336 416h176M0 417h160M336 417h176M0 418h160M336 418h176M0 419h160M336 419h176M0 420h160M336 420h176M0 421h160M336 421h176M0 422h160M336 422h176M0 423h160M336 423h176M0 424h160M336 424h176M0 425h160M336 425h176M0 426h160M336 426h176M0 427h160M336 427h176M0 428h160M336 428h176M0 429h160M336 429h176M0 430h160M336 430h176M0 431h160M336 431h176M0 432h160M336 432h176M0 433h160M336 433h176M0 434h160M336 434h176M0 435h160M336 435h176M0 436h160M336 436h176M0 437h160M336 437h176M0 438h160M336 438h176M0 439h160M336 439h176M0 440h160M336 440h176M0 441h160M336 441h176M0 442h160M336 442h176M0 443h160M336 443h176M0 444h160M336 444h176M0 445h160M336 445h176M0 446h160M336 446h176M0 447h160M336 447h176M0 448h160M336 448h176M0 449h160M336 449h176M0 450h160M336 450h176M0 451h160M336 451h176M0 452h160M336 452h176M0 453h160M336 453h176M0 454h160M336 454h176M0 455h160M336 455h176M0 456h160M336 456h176M0 457h160M336 457h176M0 458h160M336 458h176M0 459h160M336 459h176M0 460h160M336 460h176M0 461h160M336 461h176M0 462h160M336 462h176M0 463h160M336 463h176M0 464h160M336 464h176M0 465h160M336 465h176M0 466h160M336 466h176M0 467h160M336 467h176M0 468h160M336 468h176M0 469h160M336 469h176M0 470h160M336 470h176M0 471h160M336 471h176M0 472h160M336 472h176M0 473h160M336 473h176M0 474h160M336 474h176M0 475h160M336 475h176M0 476h160M336 476h176M0 477h160M336 477h176M0 478h160M336 478h176M0 479h160M336 479h176M0 480h160M336 480h176M0 481h160M336 481h176M0 482h160M336 482h176M0 483h160M336 483h176M0 484h160M336 484h176M0 485h160M336 485h176M0 486h160M336 486h176M0 487h160M336 487h176M0 488h160M336 488h176M0 489h160M336 489h176M0 490h160M336 490h176M0 491h160M336 491h176M0 492h160M336 492h176M0 493h160M336 493h176M0 494h160M336 494h176M0 495h160M336 495h176M0 496h160M336 496h176M0 497h160M336 497h176M0 498h160M336 498h176M0 499h160M336 499h176M0 500h160M336 500h176M0 501h160M336 501h176M0 502h160M336 502h176M0 503h160M336 503h176M0 504h160M336 504h176M0 505h160M336 505h176M0 506h160M336 506h176M0 507h160M336 507h176M0 508h160M336 508h176M0 509h160M336 509h176M0 510h160M336 510h176M0 511h160M336 511h176" />
<path stroke="#1a1b1c" d="M192 0h112M192 1h112M192 2h112M192 3h112M192 4h112M192 5h112M192 6h112M192 7h112M192 8h112M192 9h112M192 10h112M192 11h112M192 12h112M192 13h112M192 14h112M192 15h112M192 16h112M192 17h112M192 18h112M192 19h112M192 20h112M192 21h112M192 22h112M192 23h112M192 24h112M192 25h112M192 26h112M192 27h112M192 28h112M192 29h112M192 30h112M192 31h112M192 32h112M192 33h112M192 34h112M192 35h112M192 36h112M192 37h112M192 38h112M192 39h112M192 40h112M192 41h112M192 42h112M192 43h112M192 44h112M192 45h112M192 46h112M192 47h112M192 48h112M192 49h112M192 50h112M192 51h112M192 52h112M192 53h112M192 54h112M192 55h112M192 56h112M192 57h112M192 58h112M192 59h112M192 60h112M192 61h112M192 62h112M192 63h112M160 80h176M160 81h176M160 82h176M160 83h176M160 84h176M160 85h176M160 86h176M160 87h176M160 88h176M160 89h176M160 90h176M160 91h176M160 92h176M160 93h176M160 94h176M160 95h176M160 96h176M160 97h176M160 98h176M160 99h176M160 100h176M160 101h176M160 102h176M160 103h176M160 104h176M160 105h176M160 106h176M160 107h176M160 108h176M160 109h176M160 110h176M160 111h176M192 112h16M288 112h16M192 113h16M288 113h16M192 114h16M288 114h16M192 115h16M288 115h16M192 116h16M288 116h16M192 117h16M288 117h16M192 118h16M288 118h16M192 119h16M288 119h16M192 120h16M288 120h16M192 121h16M288 121h16M192 122h16M288 122h16M192 123h16M288 123h16M192 124h16M288 124h16M192 125h16M288 125h16M192 126h16M288 126h16M192 127h16M288 127h16M160 128h80M256 128h80M160 129h80M256 129h80M160 130h80M256 130h80M160 131h80M256 131h80M160 132h80M256 132h80M160 133h80M256 133h80M160 134h80M256 134h80M160 135h80M256 135h80M160 136h80M256 136h80M160 137h80M256 137h80M160 138h80M256 138h80M160 139h80M256 139h80M160 140h80M256 140h80M160 141h80M256 141h80M160 142h80M256 142h80M160 143h80M256 143h80M160 144h16M224 144h16M256 144h16M320 144h16M160 145h16M224 145h16M256 145h16M320 145h16M160 146h16M224 146h16M256 146h16M320 146h16M160 147h16M224 147h16M256 147h16M320 147h16M160 148h16M224 148h16M256 148h16M320 148h16M160 149h16M224 149h16M256 149h16M320 149h16M160 150h16M224 150h16M256 150h16M320 150h16M160 151h16M224 151h16M256 151h16M320 151h16M160 152h16M224 152h16M256 152h16M320 152h16M160 153h16M224 153h16M256 153h16M320 153h16M160 154h16M224 154h16M256 154h16M320 154h16M160 155h16M224 155h16M256 155h16M320 155h16M160 156h16M224 156h16M256 156h16M320 156h16M160 157h16M224 157h16M256 157h16M320 157h16M160 158h16M224 158h16M256 158h16M320 158h16M160 159h16M224 159h16M256 159h16M320 159h16M160 160h80M256 160h80M160 161h80M256 161h80M160 162h80M256 162h80M160 163h80M256 163h80M160 164h80M256 164h80M160 165h80M256 165h80M160 166h80M256 166h80M160 167h80M256 167h80M160 168h80M256 168h80M160 169h80M256 169h80M160 170h80M256 170h80M160 171h80M256 171h80M160 172h80M256 172h80M160 173h80M256 173h80M160 174h80M256 174h80M160 175h80M256 175h80M192 176h16M288 176h16M192 177h16M288 177h16M192 178h16M288 178h16M192 179h16M288 179h16M192 180h16M288 180h16M192 181h16M288 181h16M192 182h16M288 182h16M192 183h16M288 183h16M192 184h16M288 184h16M192 185h16M288 185h16M192 186h16M288 186h16M192 187h16M288 187h16M192 188h16M288 188h16M192 189h16M288 189h16M192 190h16M288 190h16M192 191h16M288 191h16M192 192h16M288 192h16M192 193h16M288 193h16M192 194h16M288 194h16M192 195h16M288 195h16M192 196h16M288 196h16M192 197h16M288 197h16M192 198h16M288 198h16M192 199h16M288 199h16M192 200h16M288 200h16M192 201h16M288 201h16M192 202h16M288 202h16M192 203h16M288 203h16M192 204h16M288 204h16M192 205h16M288 205h16M192 206h16M288 206h16M192 207h16M288 207h16M192 208h16M288 208h16M192 209h16M288 209h16M192 210h16M288 210h16M192 211h16M288 211h16M192 212h16M288 212h16M192 213h16M288 213h16M192 214h16M288 214h16M192 215h16M288 215h16M192 216h16M288 216h16M192 217h16M288 217h16M192 218h16M288 218h16M192 219h16M288 219h16M192 220h16M288 220h16M192 221h16M288 221h16M192 222h16M288 222h16M192 223h16M288 223h16M192 224h16M288 224h16M192 225h16M288 225h16M192 226h16M288 226h16M192 227h16M288 227h16M192 228h16M288 228h16M192 229h16M288 229h16M192 230h16M288 230h16M192 231h16M288 231h16M192 232h16M288 232h16M192 233h16M288 233h16M192 234h16M288 234h16M192 235h16M288 235h16M192 236h16M288 236h16M192 237h16M288 237h16M192 238h16M288 238h16M192 239h16M288 239h16M192 240h112M192 241h112M192 242h112M192 243h112M192 244h112M192 245h112M192 246h112M192 247h112M192 248h112M192 249h112M192 250h112M192 251h112M192 252h112M192 253h112M192 254h112M192 255h112M224 256h16M256 256h16M224 257h16M256 257h16M224 258h16M256 258h16M224 259h16M256 259h16M224 260h16M256 260h16M224 261h16M256 261h16M224 262h16M256 262h16M224 263h16M256 263h16M224 264h16M256 264h16M224 265h16M256 265h16M224 266h16M256 266h16M224 267h16M256 267h16M224 268h16M256 268h16M224 269h16M256 269h16M224 270h16M256 270h16M224 271h16M256 271h16M224 272h16M256 272h16M224 273h16M256 273h16M224 274h16M256 274h16M224 275h16M256 275h16M224 276h16M256 276h16M224 277h16M256 277h16M224 278h16M256 278h16M224 279h16M256 279h16M224 280h16M256 280h16M224 281h16M256 281h16M224 282h16M256 282h16M224 283h16M256 283h16M224 284h16M256 284h16M224 285h16M256 285h16M224 286h16M256 286h16M224 287h16M256 287h16M208 288h32M256 288h32M208 289h32M256 289h32M208 290h32M256 290h32M208 291h32M256 291h32M208 292h32M256 292h32M208 293h32M256 293h32M208 294h32M256 294h32M208 295h32M256 295h32M208 296h32M256 296h32M208 297h32M256 297h32M208 298h32M256 298h32M208 299h32M256 299h32M208 300h32M256 300h32M208 301h32M256 301h32M208 302h32M256 302h32M208 303h32M256 303h32M224 304h16M256 304h16M224 305h16M256 305h16M224 306h16M256 306h16M224 307h16M256 307h16M224 308h16M256 308h16M224 309h16M256 309h16M224 310h16M256 310h16M224 311h16M256 311h16M224 312h16M256 312h16M224 313h16M256 313h16M224 314h16M256 314h16M224 315h16M256 315h16M224 316h16M256 316h16M224 317h16M256 317h16M224 318h16M256 318h16M224 319h16M256 319h16M224 320h16M256 320h16M224 321h16M256 321h16M224 322h16M256 322h16M224 323h16M256 323h16M224 324h16M256 324h16M224 325h16M256 325h16M224 326h16M256 326h16M224 327h16M256 327h16M224 328h16M256 328h16M224 329h16M256 329h16M224 330h16M256 330h16M224 331h16M256 331h16M224 332h16M256 332h16M224 333h16M256 333h16M224 334h16M256 334h16M224 335h16M256 335h16M176 336h64M256 336h48M176 337h64M256 337h48M176 338h64M256 338h48M176 339h64M256 339h48M176 340h64M256 340h48M176 341h64M256 341h48M176 342h64M256 342h48M176 343h64M256 343h48M176 344h64M256 344h48M176 345h64M256 345h48M176 346h64M256 346h48M176 347h64M256 347h48M176 348h64M256 348h48M176 349h64M256 349h48M176 350h64M256 350h48M176 351h64M256 351h48M160 352h16M224 352h16M256 352h16M304 352h16M160 353h16M224 353h16M256 353h16M304 353h16M160 354h16M224 354h16M256 354h16M304 354h16M160 355h16M224 355h16M256 355h16M304 355h16M160 356h16M224 356h16M256 356h16M304 356h16M160 357h16M224 357h16M256 357h16M304 357h16M160 358h16M224 358h16M256 358h16M304 358h16M160 359h16M224 359h16M256 359h16M304 359h16M160 360h16M224 360h16M256 360h16M304 360h16M160 361h16M224 361h16M256 361h16M304 361h16M160 362h16M224 362h16M256 362h16M304 362h16M160 363h16M224 363h16M256 363h16M304 363h16M160 364h16M224 364h16M256 364h16M304 364h16M160 365h16M224 365h16M256 365h16M304 365h16M160 366h16M224 366h16M256 366h16M304 366h16M160 367h16M224 367h16M256 367h16M304 367h16M160 368h16M304 368h16M160 369h16M304 369h16M160 370h16M304 370h16M160 371h16M304 371h16M160 372h16M304 372h16M160 373h16M304 373h16M160 374h16M304 374h16M160 375h16M304 375h16M160 376h16M304 376h16M160 377h16M304 377h16M160 378h16M304 378h16M160 379h16M304 379h16M160 380h16M304 380h16M160 381h16M304 381h16M160 382h16M304 382h16M160 383h16M304 383h16M160 384h16M192 384h16M256 384h32M304 384h16M160 385h16M192 385h16M256 385h32M304 385h16M160 386h16M192 386h16M256 386h32M304 386h16M160 387h16M192 387h16M256 387h32M304 387h16M160 388h16M192 388h16M256 388h32M304 388h16M160 389h16M192 389h16M256 389h32M304 389h16M160 390h16M192 390h16M256 390h32M304 390h16M160 391h16M192 391h16M256 391h32M304 391h16M160 392h16M192 392h16M256 392h32M304 392h16M160 393h16M192 393h16M256 393h32M304 393h16M160 394h16M192 394h16M256 394h32M304 394h16M160 395h16M192 395h16M256 395h32M304 395h16M160 396h16M192 396h16M256 396h32M304 396h16M160 397h16M192 397h16M256 397h32M304 397h16M160 398h16M192 398h16M256 398h32M304 398h16M160 399h16M192 399h16M256 399h32M304 399h16M160 400h16M192 400h16M256 400h32M304 400h16M160 401h16M192 401h16M256 401h32M304 401h16M160 402h16M192 402h16M256 402h32M304 402h16M160 403h16M192 403h16M256 403h32M304 403h16M160 404h16M192 404h16M256 404h32M304 404h16M160 405h16M192 405h16M256 405h32M304 405h16M160 406h16M192 406h16M256 406h32M304 406h16M160 407h16M192 407h16M256 407h32M304 407h16M160 408h16M192 408h16M256 408h32M304 408h16M160 409h16M192 409h16M256 409h32M304 409h16M160 410h16M192 410h16M256 410h32M304 410h16M160 411h16M192 411h16M256 411h32M304 411h16M160 412h16M192 412h16M256 412h32M304 412h16M160 413h16M192 413h16M256 413h32M304 413h16M160 414h16M192 414h16M256 414h32M304 414h16M160 415h16M192 415h16M256 415h32M304 415h16M160 416h16M192 416h16M272 416h16M304 416h16M160 417h16M192 417h16M272 417h16M304 417h16M160 418h16M192 418h16M272 418h16M304 418h16M160 419h16M192 419h16M272 419h16M304 419h16M160 420h16M192 420h16M272 420h16M304 420h16M160 421h16M192 421h16M272 421h16M304 421h16M160 422h16M192 422h16M272 422h16M304 422h16M160 423h16M192 423h16M272 423h16M304 423h16M160 424h16M192 424h16M272 424h16M304 424h16M160 425h16M192 425h16M272 425h16M304 425h16M160 426h16M192 426h16M272 426h16M304 426h16M160 427h16M192 427h16M272 427h16M304 427h16M160 428h16M192 428h16M272 428h16M304 428h16M160 429h16M192 429h16M272 429h16M304 429h16M160 430h16M192 430h16M272 430h16M304 430h16M160 431h16M192 431h16M272 431h16M304 431h16M160 432h16M192 432h16M272 432h16M304 432h16M160 433h16M192 433h16M272 433h16M304 433h16M160 434h16M192 434h16M272 434h16M304 434h16M160 435h16M192 435h16M272 435h16M304 435h16M160 436h16M192 436h16M272 436h16M304 436h16M160 437h16M192 437h16M272 437h16M304 437h16M160 438h16M192 438h16M272 438h16M304 438h16M160 439h16M192 439h16M272 439h16M304 439h16M160 440h16M192 440h16M272 440h16M304 440h16M160 441h16M192 441h16M272 441h16M304 441h16M160 442h16M192 442h16M272 442h16M304 442h16M160 443h16M192 443h16M272 443h16M304 443h16M160 444h16M192 444h16M272 444h16M304 444h16M160 445h16M192 445h16M272 445h16M304 445h16M160 446h16M192 446h16M272 446h16M304 446h16M160 447h16M192 447h16M272 447h16M304 447h16M160 448h16M192 448h16M272 448h16M304 448h16M160 449h16M192 449h16M272 449h16M304 449h16M160 450h16M192 450h16M272 450h16M304 450h16M160 451h16M192 451h16M272 451h16M304 451h16M160 452h16M192 452h16M272 452h16M304 452h16M160 453h16M192 453h16M272 453h16M304 453h16M160 454h16M192 454h16M272 454h16M304 454h16M160 455h16M192 455h16M272 455h16M304 455h16M160 456h16M192 456h16M272 456h16M304 456h16M160 457h16M192 457h16M272 457h16M304 457h16M160 458h16M192 458h16M272 458h16M304 458h16M160 459h16M192 459h16M272 459h16M304 459h16M160 460h16M192 460h16M272 460h16M304 460h16M160 461h16M192 461h16M272 461h16M304 461h16M160 462h16M192 462h16M272 462h16M304 462h16M160 463h16M192 463h16M272 463h16M304 463h16M160 464h16M192 464h16M272 464h16M304 464h16M160 465h16M192 465h16M272 465h16M304 465h16M160 466h16M192 466h16M272 466h16M304 466h16M160 467h16M192 467h16M272 467h16M304 467h16M160 468h16M192 468h16M272 468h16M304 468h16M160 469h16M192 469h16M272 469h16M304 469h16M160 470h16M192 470h16M272 470h16M304 470h16M160 471h16M192 471h16M272 471h16M304 471h16M160 472h16M192 472h16M272 472h16M304 472h16M160 473h16M192 473h16M272 473h16M304 473h16M160 474h16M192 474h16M272 474h16M304 474h16M160 475h16M192 475h16M272 475h16M304 475h16M160 476h16M192 476h16M272 476h16M304 476h16M160 477h16M192 477h16M272 477h16M304 477h16M160 478h16M192 478h16M272 478h16M304 478h16M160 479h16M192 479h16M272 479h16M304 479h16M160 480h16M192 480h16M272 480h16M304 480h16M160 481h16M192 481h16M272 481h16M304 481h16M160 482h16M192 482h16M272 482h16M304 482h16M160 483h16M192 483h16M272 483h16M304 483h16M160 484h16M192 484h16M272 484h16M304 484h16M160 485h16M192 485h16M272 485h16M304 485h16M160 486h16M192 486h16M272 486h16M304 486h16M160 487h16M192 487h16M272 487h16M304 487h16M160 488h16M192 488h16M272 488h16M304 488h16M160 489h16M192 489h16M272 489h16M304 489h16M160 490h16M192 490h16M272 490h16M304 490h16M160 491h16M192 491h16M272 491h16M304 491h16M160 492h16M192 492h16M272 492h16M304 492h16M160 493h16M192 493h16M272 493h16M304 493h16M160 494h16M192 494h16M272 494h16M304 494h16M160 495h16M192 495h16M272 495h16M304 495h16M160 496h16M192 496h16M272 496h16M304 496h16M160 497h16M192 497h16M272 497h16M304 497h16M160 498h16M192 498h16M272 498h16M304 498h16M160 499h16M192 499h16M272 499h16M304 499h16M160 500h16M192 500h16M272 500h16M304 500h16M160 501h16M192 501h16M272 501h16M304 501h16M160 502h16M192 502h16M272 502h16M304 502h16M160 503h16M192 503h16M272 503h16M304 503h16M160 504h16M192 504h16M272 504h16M304 504h16M160 505h16M192 505h16M272 505h16M304 505h16M160 506h16M192 506h16M272 506h16M304 506h16M160 507h16M192 507h16M272 507h16M304 507h16M160 508h16M192 508h16M272 508h16M304 508h16M160 509h16M192 509h16M272 509h16M304 509h16M160 510h16M192 510h16M272 510h16M304 510h16M160 511h16M192 511h16M272 511h16M304 511h16" />
<path stroke="#cfa926" d="M192 64h112M192 65h112M192 66h112M192 67h112M192 68h112M192 69h112M192 70h112M192 71h112M192 72h112M192 73h112M192 74h112M192 75h112M192 76h112M192 77h112M192 78h112M192 79h112" />
<path stroke="#b7c4cc" d="M208 112h80M208 113h80M208 114h80M208 115h80M208 116h80M208 117h80M208 118h80M208 119h80M208 120h80M208 121h80M208 122h80M208 123h80M208 124h80M208 125h80M208 126h80M208 127h80M240 128h16M240 129h16M240 130h16M240 131h16M240 132h16M240 133h16M240 134h16M240 135h16M240 136h16M240 137h16M240 138h16M240 139h16M240 140h16M240 141h16M240 142h16M240 143h16M240 144h16M240 145h16M240 146h16M240 147h16M240 148h16M240 149h16M240 150h16M240 151h16M240 152h16M240 153h16M240 154h16M240 155h16M240 156h16M240 157h16M240 158h16M240 159h16M240 160h16M240 161h16M240 162h16M240 163h16M240 164h16M240 165h16M240 166h16M240 167h16M240 168h16M240 169h16M240 170h16M240 171h16M240 172h16M240 173h16M240 174h16M240 175h16M208 176h80M208 177h80M208 178h80M208 179h80M208 180h80M208 181h80M208 182h80M208 183h80M208 184h80M208 185h80M208 186h80M208 187h80M208 188h80M208 189h80M208 190h80M208 191h80M208 192h80M208 193h80M208 194h80M208 195h80M208 196h80M208 197h80M208 198h80M208 199h80M208 200h80M208 201h80M208 202h80M208 203h80M208 204h80M208 205h80M208 206h80M208 207h80M208 208h80M208 209h80M208 210h80M208 211h80M208 212h80M208 213h80M208 214h80M208 215h80M208 216h80M208 217h80M208 218h80M208 219h80M208 220h80M208 221h80M208 222h80M208 223h80M208 224h80M208 225h80M208 226h80M208 227h80M208 228h80M208 229h80M208 230h80M208 231h80M208 232h80M208 233h80M208 234h80M208 235h80M208 236h80M208 237h80M208 238h80M208 239h80M240 272h16M240 273h16M240 274h16M240 275h16M240 276h16M240 277h16M240 278h16M240 279h16M240 280h16M240 281h16M240 282h16M240 283h16M240 284h16M240 285h16M240 286h16M240 287h16M240 288h16M240 289h16M240 290h16M240 291h16M240 292h16M240 293h16M240 294h16M240 295h16M240 296h16M240 297h16M240 298h16M240 299h16M240 300h16M240 301h16M240 302h16M240 303h16M240 304h16M240 305h16M240 306h16M240 307h16M240 308h16M240 309h16M240 310h16M240 311h16M240 312h16M240 313h16M240 314h16M240 315h16M240 316h16M240 317h16M240 318h16M240 319h16M240 320h16M240 321h16M240 322h16M240 323h16M240 324h16M240 325h16M240 326h16M240 327h16M240 328h16M240 329h16M240 330h16M240 331h16M240 332h16M240 333h16M240 334h16M240 335h16M240 336h16M240 337h16M240 338h16M240 339h16M240 340h16M240 341h16M240 342h16M240 343h16M240 344h16M240 345h16M240 346h16M240 347h16M240 348h16M240 349h16M240 350h16M240 351h16M240 352h16M240 353h16M240 354h16M240 355h16M240 356h16M240 357h16M240 358h16M240 359h16M240 360h16M240 361h16M240 362h16M240 363h16M240 364h16M240 365h16M240 366h16M240 367h16" />
<path stroke="#906015" d="M176 144h16M272 144h16M176 145h16M272 145h16M176 146h16M272 146h16M176 147h16M272 147h16M176 148h16M272 148h16M176 149h16M272 149h16M176 150h16M272 150h16M176 151h16M272 151h16M176 152h16M272 152h16M176 153h16M272 153h16M176 154h16M272 154h16M176 155h16M272 155h16M176 156h16M272 156h16M176 157h16M272 157h16M176 158h16M272 158h16M176 159h16M272 159h16" />
<path stroke="#ffffff" d="M192 144h32M288 144h32M192 145h32M288 145h32M192 146h32M288 146h32M192 147h32M288 147h32M192 148h32M288 148h32M192 149h32M288 149h32M192 150h32M288 150h32M192 151h32M288 151h32M192 152h32M288 152h32M192 153h32M288 153h32M192 154h32M288 154h32M192 155h32M288 155h32M192 156h32M288 156h32M192 157h32M288 157h32M192 158h32M288 158h32M192 159h32M288 159h32" />
<path stroke="#6e767a" d="M240 256h16M240 257h16M240 258h16M240 259h16M240 260h16M240 261h16M240 262h16M240 263h16M240 264h16M240 265h16M240 266h16M240 267h16M240 268h16M240 269h16M240 270h16M240 271h16" />
<path stroke="#1582bd" d="M176 352h48M272 352h16M176 353h48M272 353h16M176 354h48M272 354h16M176 355h48M272 355h16M176 356h48M272 356h16M176 357h48M272 357h16M176 358h48M272 358h16M176 359h48M272 359h16M176 360h48M272 360h16M176 361h48M272 361h16M176 362h48M272 362h16M176 363h48M272 363h16M176 364h48M272 364h16M176 365h48M272 365h16M176 366h48M272 366h16M176 367h48M272 367h16M176 368h128M176 369h128M176 370h128M176 371h128M176 372h128M176 373h128M176 374h128M176 375h128M176 376h128M176 377h128M176 378h128M176 379h128M176 380h128M176 381h128M176 382h128M176 383h128M176 384h16M208 384h48M288 384h16M176 385h16M208 385h48M288 385h16M176 386h16M208 386h48M288 386h16M176 387h16M208 387h48M288 387h16M176 388h16M208 388h48M288 388h16M176 389h16M208 389h48M288 389h16M176 390h16M208 390h48M288 390h16M176 391h16M208 391h48M288 391h16M176 392h16M208 392h48M288 392h16M176 393h16M208 393h48M288 393h16M176 394h16M208 394h48M288 394h16M176 395h16M208 395h48M288 395h16M176 396h16M208 396h48M288 396h16M176 397h16M208 397h48M288 397h16M176 398h16M208 398h48M288 398h16M176 399h16M208 399h48M288 399h16M176 400h16M208 400h48M288 400h16M176 401h16M208 401h48M288 401h16M176 402h16M208 402h48M288 402h16M176 403h16M208 403h48M288 403h16M176 404h16M208 404h48M288 404h16M176 405h16M208 405h48M288 405h16M176 406h16M208 406h48M288 406h16M176 407h16M208 407h48M288 407h16M176 408h16M208 408h48M288 408h16M176 409h16M208 409h48M288 409h16M176 410h16M208 410h48M288 410h16M176 411h16M208 411h48M288 411h16M176 412h16M208 412h48M288 412h16M176 413h16M208 413h48M288 413h16M176 414h16M208 414h48M288 414h16M176 415h16M208 415h48M288 415h16M176 416h16M208 416h48M288 416h16M176 417h16M208 417h48M288 417h16M176 418h16M208 418h48M288 418h16M176 419h16M208 419h48M288 419h16M176 420h16M208 420h48M288 420h16M176 421h16M208 421h48M288 421h16M176 422h16M208 422h48M288 422h16M176 423h16M208 423h48M288 423h16M176 424h16M208 424h48M288 424h16M176 425h16M208 425h48M288 425h16M176 426h16M208 426h48M288 426h16M176 427h16M208 427h48M288 427h16M176 428h16M208 428h48M288 428h16M176 429h16M208 429h48M288 429h16M176 430h16M208 430h48M288 430h16M176 431h16M208 431h48M288 431h16M176 432h16M208 432h48M288 432h16M176 433h16M208 433h48M288 433h16M176 434h16M208 434h48M288 434h16M176 435h16M208 435h48M288 435h16M176 436h16M208 436h48M288 436h16M176 437h16M208 437h48M288 437h16M176 438h16M208 438h48M288 438h16M176 439h16M208 439h48M288 439h16M176 440h16M208 440h48M288 440h16M176 441h16M208 441h48M288 441h16M176 442h16M208 442h48M288 442h16M176 443h16M208 443h48M288 443h16M176 444h16M208 444h48M288 444h16M176 445h16M208 445h48M288 445h16M176 446h16M208 446h48M288 446h16M176 447h16M208 447h48M288 447h16M176 448h16M208 448h48M288 448h16M176 449h16M208 449h48M288 449h16M176 450h16M208 450h48M288 450h16M176 451h16M208 451h48M288 451h16M176 452h16M208 452h48M288 452h16M176 453h16M208 453h48M288 453h16M176 454h16M208 454h48M288 454h16M176 455h16M208 455h48M288 455h16M176 456h16M208 456h48M288 456h16M176 457h16M208 457h48M288 457h16M176 458h16M208 458h48M288 458h16M176 459h16M208 459h48M288 459h16M176 460h16M208 460h48M288 460h16M176 461h16M208 461h48M288 461h16M176 462h16M208 462h48M288 462h16M176 463h16M208 463h48M288 463h16M176 464h16M208 464h48M288 464h16M176 465h16M208 465h48M288 465h16M176 466h16M208 466h48M288 466h16M176 467h16M208 467h48M288 467h16M176 468h16M208 468h48M288 468h16M176 469h16M208 469h48M288 469h16M176 470h16M208 470h48M288 470h16M176 471h16M208 471h48M288 471h16M176 472h16M208 472h48M288 472h16M176 473h16M208 473h48M288 473h16M176 474h16M208 474h48M288 474h16M176 475h16M208 475h48M288 475h16M176 476h16M208 476h48M288 476h16M176 477h16M208 477h48M288 477h16M176 478h16M208 478h48M288 478h16M176 479h16M208 479h48M288 479h16M176 480h16M208 480h48M288 480h16M176 481h16M208 481h48M288 481h16M176 482h16M208 482h48M288 482h16M176 483h16M208 483h48M288 483h16M176 484h16M208 484h48M288 484h16M176 485h16M208 485h48M288 485h16M176 486h16M208 486h48M288 486h16M176 487h16M208 487h48M288 487h16M176 488h16M208 488h48M288 488h16M176 489h16M208 489h48M288 489h16M176 490h16M208 490h48M288 490h16M176 491h16M208 491h48M288 491h16M176 492h16M208 492h48M288 492h16M176 493h16M208 493h48M288 493h16M176 494h16M208 494h48M288 494h16M176 495h16M208 495h48M288 495h16M176 496h16M208 496h48M288 496h16M176 497h16M208 497h48M288 497h16M176 498h16M208 498h48M288 498h16M176 499h16M208 499h48M288 499h16M176 500h16M208 500h48M288 500h16M176 501h16M208 501h48M288 501h16M176 502h16M208 502h48M288 502h16M176 503h16M208 503h48M288 503h16M176 504h16M208 504h48M288 504h16M176 505h16M208 505h48M288 505h16M176 506h16M208 506h48M288 506h16M176 507h16M208 507h48M288 507h16M176 508h16M208 508h48M288 508h16M176 509h16M208 509h48M288 509h16M176 510h16M208 510h48M288 510h16M176 511h16M208 511h48M288 511h16" />
<path stroke="#06354e" d="M288 352h16M288 353h16M288 354h16M288 355h16M288 356h16M288 357h16M288 358h16M288 359h16M288 360h16M288 361h16M288 362h16M288 363h16M288 364h16M288 365h16M288 366h16M288 367h16" />
<path stroke="#d4dce0" d="M320 384h16M320 385h16M320 386h16M320 387h16M320 388h16M320 389h16M320 390h16M320 391h16M320 392h16M320 393h16M320 394h16M320 395h16M320 396h16M320 397h16M320 398h16M320 399h16M320 400h16M320 401h16M320 402h16M320 403h16M320 404h16M320 405h16M320 406h16M320 407h16M320 408h16M320 409h16M320 410h16M320 411h16M320 412h16M320 413h16M320 414h16M320 415h16M320 416h16M320 417h16M320 418h16M320 419h16M320 420h16M320 421h16M320 422h16M320 423h16M320 424h16M320 425h16M320 426h16M320 427h16M320 428h16M320 429h16M320 430h16M320 431h16M320 432h16M320 433h16M320 434h16M320 435h16M320 436h16M320 437h16M320 438h16M320 439h16M320 440h16M320 441h16M320 442h16M320 443h16M320 444h16M320 445h16M320 446h16M320 447h16M320 448h16M320 449h16M320 450h16M320 451h16M320 452h16M320 453h16M320 454h16M320 455h16M320 456h16M320 457h16M320 458h16M320 459h16M320 460h16M320 461h16M320 462h16M320 463h16M320 464h16M320 465h16M320 466h16M320 467h16M320 468h16M320 469h16M320 470h16M320 471h16M320 472h16M320 473h16M320 474h16M320 475h16M320 476h16M320 477h16M320 478h16M320 479h16M320 480h16M320 481h16M320 482h16M320 483h16M320 484h16M320 485h16M320 486h16M320 487h16M320 488h16M320 489h16M320 490h16M320 491h16M320 492h16M320 493h16M320 494h16M320 495h16M320 496h16M320 497h16M320 498h16M320 499h16M320 500h16M320 501h16M320 502h16M320 503h16M320 504h16M320 505h16M320 506h16M320 507h16M320 508h16M320 509h16M320 510h16M320 511h16" />
<path stroke="#0d5c85" d="M256 416h16M256 417h16M256 418h16M256 419h16M256 420h16M256 421h16M256 422h16M256 423h16M256 424h16M256 425h16M256 426h16M256 427h16M256 428h16M256 429h16M256 430h16M256 431h16M256 432h16M256 433h16M256 434h16M256 435h16M256 436h16M256 437h16M256 438h16M256 439h16M256 440h16M256 441h16M256 442h16M256 443h16M256 444h16M256 445h16M256 446h16M256 447h16M256 448h16M256 449h16M256 450h16M256 451h16M256 452h16M256 453h16M256 454h16M256 455h16M256 456h16M256 457h16M256 458h16M256 459h16M256 460h16M256 461h16M256 462h16M256 463h16M256 464h16M256 465h16M256 466h16M256 467h16M256 468h16M256 469h16M256 470h16M256 471h16M256 472h16M256 473h16M256 474h16M256 475h16M256 476h16M256 477h16M256 478h16M256 479h16M256 480h16M256 481h16M256 482h16M256 483h16M256 484h16M256 485h16M256 486h16M256 487h16M256 488h16M256 489h16M256 490h16M256 491h16M256 492h16M256 493h16M256 494h16M256 495h16M256 496h16M256 497h16M256 498h16M256 499h16M256 500h16M256 501h16M256 502h16M256 503h16M256 504h16M256 505h16M256 506h16M256 507h16M256 508h16M256 509h16M256 510h16M256 511h16" />
</svg>