<svg xmlns="http://www.w3.org/2000/svg" viewBox="0 -0.5 512 512" shape-rendering="crispEdges">
<metadata>Made with Pixels to Svg https://codepen.io/shshaw/pen/XbxvNj</metadata>
<path stroke="#6e767a" d="M448 16h16M448 17h16M448 18h16M448 19h16M448 20h16M448 21h16M448 22h16M448 23h16M448 24h16M448 25h16M448 26h16M448 27h16M448 28h16M448 29h16M448 30h16M448 31h16" />

<path stroke="#111111" d="M448 32h16M448 33h16M448 34h16M448 35h16M448 36h16M448 37h16M448 38h16M448 39h16M448 40h16M448 41h16M448 42h16M448 43h16M448 44h16M448 45h16M448 46h16M448 47h16M192 64h96M192 65h96M192 66h96M192 67h96M192 68h96M192 69h96M192 70h96M192 71h96M192 72h96M192 73h96M192 74h96M192 75h96M192 76h96M192 77h96M192 78h96M192 79h96M192 80h16M272 80h32M192 81h16M272 81h32M192 82h16M272 82h32M192 83h16M272 83h32M192 84h16M272 84h32M192 85h16M272 85h32M192 86h16M272 86h32M192 87h16M272 87h32M192 88h16M272 88h32M192 89h16M272 89h32M192 90h16M272 90h32M192 91h16M272 91h32M192 92h16M272 92h32M192 93h16M272 93h32M192 94h16M272 94h32M192 95h16M272 95h32M192 96h16M288 96h16M192 97h16M288 97h16M192 98h16M288 98h16M192 99h16M288 99h16M192 100h16M288 100h16M192 101h16M288 101h16M192 102h16M288 102h16M192 103h16M288 103h16M192 104h16M288 104h16M192 105h16M288 105h16M192 106h16M288 106h16M192 107h16M288 107h16M192 108h16M288 108h16M192 109h16M288 109h16M192 110h16M288 110h16M192 111h16M288 111h16M192 112h16M288 112h16M192 113h16M288 113h16M192 114h16M288 114h16M192 115h16M288 115h16M192 116h16M288 116h16M192 117h16M288 117h16M192 118h16M288 118h16M192 119h16M288 119h16M192 120h16M288 120h16M192 121h16M288 121h16M192 122h16M288 122h16M192 123h16M288 123h16M192 124h16M288 124h16M192 125h16M288 125h16M192 126h16M288 126h16M192 127h16M288 127h16M160 128h80M256 128h80M160 129h80M256 129h80M160 130h80M256 130h80M160 131h80M256 131h80M160 132h80M256 132h80M160 133h80M256 133h80M160 134h80M256 134h80M160 135h80M256 135h80M160 136h80M256 136h80M160 137h80M256 137h80M160 138h80M256 138h80M160 139h80M256 139h80M160 140h80M256 140h80M160 141h80M256 141h80M160 142h80M256 142h80M160 143h80M256 143h80M160 144h16M224 144h16M256 144h16M320 144h16M160 145h16M224 145h16M256 145h16M320 145h16M160 146h16M224 146h16M256 146h16M320 146h16M160 147h16M224 147h16M256 147h16M320 147h16M160 148h16M224 148h16M256 148h16M320 148h16M160 149h16M224 149h16M256 149h16M320 149h16M160 150h16M224 150h16M256 150h16M320 150h16M160 151h16M224 151h16M256 151h16M320 151h16M160 152h16M224 152h16M256 152h16M320 152h16M160 153h16M224 153h16M256 153h16M320 153h16M160 154h16M224 154h16M256 154h16M320 154h16M160 155h16M224 155h16M256 155h16M320 155h16M160 156h16M224 156h16M256 156h16M320 156h16M160 157h16M224 157h16M256 157h16M320 157h16M160 158h16M224 158h16M256 158h16M320 158h16M160 159h16M224 159h16M256 159h16M320 159h16M160 160h80M256 160h80M160 161h80M256 161h80M160 162h80M256 162h80M160 163h80M256 163h80M160 164h80M256 164h80M160 165h80M256 165h80M160 166h80M256 166h80M160 167h80M256 167h80M160 168h80M256 168h80M160 169h80M256 169h80M160 170h80M256 170h80M160 171h80M256 171h80M160 172h80M256 172h80M160 173h80M256 173h80M160 174h80M256 174h80M160 175h80M256 175h80M192 176h16M288 176h16M192 177h16M288 177h16M192 178h16M288 178h16M192 179h16M288 179h16M192 180h16M288 180h16M192 181h16M288 181h16M192 182h16M288 182h16M192 183h16M288 183h16M192 184h16M288 184h16M192 185h16M288 185h16M192 186h16M288 186h16M192 187h16M288 187h16M192 188h16M288 188h16M192 189h16M288 189h16M192 190h16M288 190h16M192 191h16M288 191h16M192 192h16M288 192h16M192 193h16M288 193h16M192 194h16M288 194h16M192 195h16M288 195h16M192 196h16M288 196h16M192 197h16M288 197h16M192 198h16M288 198h16M192 199h16M288 199h16M192 200h16M288 200h16M192 201h16M288 201h16M192 202h16M288 202h16M192 203h16M288 203h16M192 204h16M288 204h16M192 205h16M288 205h16M192 206h16M288 206h16M192 207h16M288 207h16M192 208h16M288 208h16M192 209h16M288 209h16M192 210h16M288 210h16M192 211h16M288 211h16M192 212h16M288 212h16M192 213h16M288 213h16M192 214h16M288 214h16M192 215h16M288 215h16M192 216h16M288 216h16M192 217h16M288 217h16M192 218h16M288 218h16M192 219h16M288 219h16M192 220h16M288 220h16M192 221h16M288 221h16M192 222h16M288 222h16M192 223h16M288 223h16M192 224h16M288 224h16M192 225h16M288 225h16M192 226h16M288 226h16M192 227h16M288 227h16M192 228h16M288 228h16M192 229h16M288 229h16M192 230h16M288 230h16M192 231h16M288 231h16M192 232h16M288 232h16M192 233h16M288 233h16M192 234h16M288 234h16M192 235h16M288 235h16M192 236h16M288 236h16M192 237h16M288 237h16M192 238h16M288 238h16M192 239h16M288 239h16M192 240h112M192 241h112M192 242h112M192 243h112M192 244h112M192 245h112M192 246h112M192 247h112M192 248h112M192 249h112M192 250h112M192 251h112M192 252h112M192 253h112M192 254h112M192 255h112M224 256h16M256 256h16M224 257h16M256 257h16M224 258h16M256 258h16M224 259h16M256 259h16M224 260h16M256 260h16M224 261h16M256 261h16M224 262h16M256 262h16M224 263h16M256 263h16M224 264h16M256 264h16M224 265h16M256 265h16M224 266h16M256 266h16M224 267h16M256 267h16M224 268h16M256 268h16M224 269h16M256 269h16M224 270h16M256 270h16M224 271h16M256 271h16M224 272h16M256 272h16M224 273h16M256 273h16M224 274h16M256 274h16M224 275h16M256 275h16M224 276h16M256 276h16M224 277h16M256 277h16M224 278h16M256 278h16M224 279h16M256 279h16M224 280h16M256 280h16M224 281h16M256 281h16M224 282h16M256 282h16M224 283h16M256 283h16M224 284h16M256 284h16M224 285h16M256 285h16M224 286h16M256 286h16M224 287h16M256 287h16M224 288h16M256 288h16M224 289h16M256 289h16M224 290h16M256 290h16M224 291h16M256 291h16M224 292h16M256 292h16M224 293h16M256 293h16M224 294h16M256 294h16M224 295h16M256 295h16M224 296h16M256 296h16M224 297h16M256 297h16M224 298h16M256 298h16M224 299h16M256 299h16M224 300h16M256 300h16M224 301h16M256 301h16M224 302h16M256 302h16M224 303h16M256 303h16M224 304h16M256 304h16M224 305h16M256 305h16M224 306h16M256 306h16M224 307h16M256 307h16M224 308h16M256 308h16M224 309h16M256 309h16M224 310h16M256 310h16M224 311h16M256 311h16M224 312h16M256 312h16M224 313h16M256 313h16M224 314h16M256 314h16M224 315h16M256 315h16M224 316h16M256 316h16M224 317h16M256 317h16M224 318h16M256 318h16M224 319h16M256 319h16M224 320h16M256 320h16M224 321h16M256 321h16M224 322h16M256 322h16M224 323h16M256 323h16M224 324h16M256 324h16M224 325h16M256 325h16M224 326h16M256 326h16M224 327h16M256 327h16M224 328h16M256 328h16M224 329h16M256 329h16M224 330h16M256 330h16M224 331h16M256 331h16M224 332h16M256 332h16M224 333h16M256 333h16M224 334h16M256 334h16M224 335h16M256 335h16M176 336h64M256 336h48M176 337h64M256 337h48M176 338h64M256 338h48M176 339h64M256 339h48M176 340h64M256 340h48M176 341h64M256 341h48M176 342h64M256 342h48M176 343h64M256 343h48M176 344h64M256 344h48M176 345h64M256 345h48M176 346h64M256 346h48M176 347h64M256 347h48M176 348h64M256 348h48M176 349h64M256 349h48M176 350h64M256 350h48M176 351h64M256 351h48M160 352h16M224 352h16M256 352h16M304 352h16M160 353h16M224 353h16M256 353h16M304 353h16M160 354h16M224 354h16M256 354h16M304 354h16M160 355h16M224 355h16M256 355h16M304 355h16M160 356h16M224 356h16M256 356h16M304 356h16M160 357h16M224 357h16M256 357h16M304 357h16M160 358h16M224 358h16M256 358h16M304 358h16M160 359h16M224 359h16M256 359h16M304 359h16M160 360h16M224 360h16M256 360h16M304 360h16M160 361h16M224 361h16M256 361h16M304 361h16M160 362h16M224 362h16M256 362h16M304 362h16M160 363h16M224 363h16M256 363h16M304 363h16M160 364h16M224 364h16M256 364h16M304 364h16M160 365h16M224 365h16M256 365h16M304 365h16M160 366h16M224 366h16M256 366h16M304 366h16M160 367h16M224 367h16M256 367h16M304 367h16M160 368h16M304 368h16M160 369h16M304 369h16M160 370h16M304 370h16M160 371h16M304 371h16M160 372h16M304 372h16M160 373h16M304 373h16M160 374h16M304 374h16M160 375h16M304 375h16M160 376h16M304 376h16M160 377h16M304 377h16M160 378h16M304 378h16M160 379h16M304 379h16M160 380h16M304 380h16M160 381h16M304 381h16M160 382h16M304 382h16M160 383h16M304 383h16M160 384h16M192 384h16M256 384h32M304 384h16M160 385h16M192 385h16M256 385h32M304 385h16M160 386h16M192 386h16M256 386h32M304 386h16M160 387h16M192 387h16M256 387h32M304 387h16M160 388h16M192 388h16M256 388h32M304 388h16M160 389h16M192 389h16M256 389h32M304 389h16M160 390h16M192 390h16M256 390h32M304 390h16M160 391h16M192 391h16M256 391h32M304 391h16M160 392h16M192 392h16M256 392h32M304 392h16M160 393h16M192 393h16M256 393h32M304 393h16M160 394h16M192 394h16M256 394h32M304 394h16M160 395h16M192 395h16M256 395h32M304 395h16M160 396h16M192 396h16M256 396h32M304 396h16M160 397h16M192 397h16M256 397h32M304 397h16M160 398h16M192 398h16M256 398h32M304 398h16M160 399h16M192 399h16M256 399h32M304 399h16M160 400h16M192 400h16M256 400h32M304 400h16M160 401h16M192 401h16M256 401h32M304 401h16M160 402h16M192 402h16M256 402h32M304 402h16M160 403h16M192 403h16M256 403h32M304 403h16M160 404h16M192 404h16M256 404h32M304 404h16M160 405h16M192 405h16M256 405h32M304 405h16M160 406h16M192 406h16M256 406h32M304 406h16M160 407h16M192 407h16M256 407h32M304 407h16M160 408h16M192 408h16M256 408h32M304 408h16M160 409h16M192 409h16M256 409h32M304 409h16M160 410h16M192 410h16M256 410h32M304 410h16M160 411h16M192 411h16M256 411h32M304 411h16M160 412h16M192 412h16M256 412h32M304 412h16M160 413h16M192 413h16M256 413h32M304 413h16M160 414h16M192 414h16M256 414h32M304 414h16M160 415h16M192 415h16M256 415h32M304 415h16M160 416h16M192 416h16M272 416h16M304 416h16M160 417h16M192 417h16M272 417h16M304 417h16M160 418h16M192 418h16M272 418h16M304 418h16M160 419h16M192 419h16M272 419h16M304 419h16M160 420h16M192 420h16M272 420h16M304 420h16M160 421h16M192 421h16M272 421h16M304 421h16M160 422h16M192 422h16M272 422h16M304 422h16M160 423h16M192 423h16M272 423h16M304 423h16M160 424h16M192 424h16M272 424h16M304 424h16M160 425h16M192 425h16M272 425h16M304 425h16M160 426h16M192 426h16M272 426h16M304 426h16M160 427h16M192 427h16M272 427h16M304 427h16M160 428h16M192 428h16M272 428h16M304 428h16M160 429h16M192 429h16M272 429h16M304 429h16M160 430h16M192 430h16M272 430h16M304 430h16M160 431h16M192 431h16M272 431h16M304 431h16M160 432h16M192 432h16M272 432h16M304 432h16M160 433h16M192 433h16M272 433h16M304 433h16M160 434h16M192 434h16M272 434h16M304 434h16M160 435h16M192 435h16M272 435h16M304 435h16M160 436h16M192 436h16M272 436h16M304 436h16M160 437h16M192 437h16M272 437h16M304 437h16M160 438h16M192 438h16M272 438h16M304 438h16M160 439h16M192 439h16M272 439h16M304 439h16M160 440h16M192 440h16M272 440h16M304 440h16M160 441h16M192 441h16M272 441h16M304 441h16M160 442h16M192 442h16M272 442h16M304 442h16M160 443h16M192 443h16M272 443h16M304 443h16M160 444h16M192 444h16M272 444h16M304 444h16M160 445h16M192 445h16M272 445h16M304 445h16M160 446h16M192 446h16M272 446h16M304 446h16M160 447h16M192 447h16M272 447h16M304 447h16M160 448h16M192 448h16M272 448h16M304 448h16M160 449h16M192 449h16M272 449h16M304 449h16M160 450h16M192 450h16M272 450h16M304 450h16M160 451h16M192 451h16M272 451h16M304 451h16M160 452h16M192 452h16M272 452h16M304 452h16M160 453h16M192 453h16M272 453h16M304 453h16M160 454h16M192 454h16M272 454h16M304 454h16M160 455h16M192 455h16M272 455h16M304 455h16M160 456h16M192 456h16M272 456h16M304 456h16M160 457h16M192 457h16M272 457h16M304 457h16M160 458h16M192 458h16M272 458h16M304 458h16M160 459h16M192 459h16M272 459h16M304 459h16M160 460h16M192 460h16M272 460h16M304 460h16M160 461h16M192 461h16M272 461h16M304 461h16M160 462h16M192 462h16M272 462h16M304 462h16M160 463h16M192 463h16M272 463h16M304 463h16M160 464h16M192 464h16M272 464h16M304 464h16M160 465h16M192 465h16M272 465h16M304 465h16M160 466h16M192 466h16M272 466h16M304 466h16M160 467h16M192 467h16M272 467h16M304 467h16M160 468h16M192 468h16M272 468h16M304 468h16M160 469h16M192 469h16M272 469h16M304 469h16M160 470h16M192 470h16M272 470h16M304 470h16M160 471h16M192 471h16M272 471h16M304 471h16M160 472h16M192 472h16M272 472h16M304 472h16M160 473h16M192 473h16M272 473h16M304 473h16M160 474h16M192 474h16M272 474h16M304 474h16M160 475h16M192 475h16M272 475h16M304 475h16M160 476h16M192 476h16M272 476h16M304 476h16M160 477h16M192 477h16M272 477h16M304 477h16M160 478h16M192 478h16M272 478h16M304 478h16M160 479h16M192 479h16M272 479h16M304 479h16M160 480h16M192 480h16M272 480h16M304 480h16M160 481h16M192 481h16M272 481h16M304 481h16M160 482h16M192 482h16M272 482h16M304 482h16M160 483h16M192 483h16M272 483h16M304 483h16M160 484h16M192 484h16M272 484h16M304 484h16M160 485h16M192 485h16M272 485h16M304 485h16M160 486h16M192 486h16M272 486h16M304 486h16M160 487h16M192 487h16M272 487h16M304 487h16M160 488h16M192 488h16M272 488h16M304 488h16M160 489h16M192 489h16M272 489h16M304 489h16M160 490h16M192 490h16M272 490h16M304 490h16M160 491h16M192 491h16M272 491h16M304 491h16M160 492h16M192 492h16M272 492h16M304 492h16M160 493h16M192 493h16M272 493h16M304 493h16M160 494h16M192 494h16M272 494h16M304 494h16M160 495h16M192 495h16M272 495h16M304 495h16M160 496h16M192 496h16M272 496h16M304 496h16M160 497h16M192 497h16M272 497h16M304 497h16M160 498h16M192 498h16M272 498h16M304 498h16M160 499h16M192 499h16M272 499h16M304 499h16M160 500h16M192 500h16M272 500h16M304 500h16M160 501h16M192 501h16M272 501h16M304 501h16M160 502h16M192 502h16M272 502h16M304 502h16M160 503h16M192 503h16M272 503h16M304 503h16M160 504h16M192 504h16M272 504h16M304 504h16M160 505h16M192 505h16M272 505h16M304 505h16M160 506h16M192 506h16M272 506h16M304 506h16M160 507h16M192 507h16M272 507h16M304 507h16M160 508h16M192 508h16M272 508h16M304 508h16M160 509h16M192 509h16M272 509h16M304 509h16M160 510h16M192 510h16M272 510h16M304 510h16M160 511h16M192 511h16M272 511h16M304 511h16" />

<path stroke="#cb651b" d="M448 48h16M448 49h16M448 50h16M448 51h16M448 52h16M448 53h16M448 54h16M448 55h16M448 56h16M448 57h16M448 58h16M448 59h16M448 60h16M448 61h16M448 62h16M448 63h16M240 256h16M240 257h16M240 258h16M240 259h16M240 260h16M240 261h16M240 262h16M240 263h16M240 264h16M240 265h16M240 266h16M240 267h16M240 268h16M240 269h16M240 270h16M240 271h16" />

<path stroke="#f5ac6c" d="M464 48h16M464 49h16M464 50h16M464 51h16M464 52h16M464 53h16M464 54h16M464 55h16M464 56h16M464 57h16M464 58h16M464 59h16M464 60h16M464 61h16M464 62h16M464 63h16M208 80h64M208 81h64M208 82h64M208 83h64M208 84h64M208 85h64M208 86h64M208 87h64M208 88h64M208 89h64M208 90h64M208 91h64M208 92h64M208 93h64M208 94h64M208 95h64M208 96h80M208 97h80M208 98h80M208 99h80M208 100h80M208 101h80M208 102h80M208 103h80M208 104h80M208 105h80M208 106h80M208 107h80M208 108h80M208 109h80M208 110h80M208 111h80M208 112h80M208 113h80M208 114h80M208 115h80M208 116h80M208 117h80M208 118h80M208 119h80M208 120h80M208 121h80M208 122h80M208 123h80M208 124h80M208 125h80M208 126h80M208 127h80M240 128h16M240 129h16M240 130h16M240 131h16M240 132h16M240 133h16M240 134h16M240 135h16M240 136h16M240 137h16M240 138h16M240 139h16M240 140h16M240 141h16M240 142h16M240 143h16M240 144h16M240 145h16M240 146h16M240 147h16M240 148h16M240 149h16M240 150h16M240 151h16M240 152h16M240 153h16M240 154h16M240 155h16M240 156h16M240 157h16M240 158h16M240 159h16M240 160h16M240 161h16M240 162h16M240 163h16M240 164h16M240 165h16M240 166h16M240 167h16M240 168h16M240 169h16M240 170h16M240 171h16M240 172h16M240 173h16M240 174h16M240 175h16M208 176h80M208 177h80M208 178h80M208 179h80M208 180h80M208 181h80M208 182h80M208 183h80M208 184h80M208 185h80M208 186h80M208 187h80M208 188h80M208 189h80M208 190h80M208 191h80M208 192h80M208 193h80M208 194h80M208 195h80M208 196h80M208 197h80M208 198h80M208 199h80M208 200h80M208 201h80M208 202h80M208 203h80M208 204h80M208 205h80M208 206h80M208 207h80M208 208h80M208 209h80M208 210h80M208 211h80M208 212h80M208 213h80M208 214h80M208 215h80M208 216h80M208 217h80M208 218h80M208 219h80M208 220h80M208 221h80M208 222h80M208 223h80M208 224h80M208 225h80M208 226h80M208 227h80M208 228h80M208 229h80M208 230h80M208 231h80M208 232h80M208 233h80M208 234h80M208 235h80M208 236h80M208 237h80M208 238h80M208 239h80M240 272h16M240 273h16M240 274h16M240 275h16M240 276h16M240 277h16M240 278h16M240 279h16M240 280h16M240 281h16M240 282h16M240 283h16M240 284h16M240 285h16M240 286h16M240 287h16M240 288h16M240 289h16M240 290h16M240 291h16M240 292h16M240 293h16M240 294h16M240 295h16M240 296h16M240 297h16M240 298h16M240 299h16M240 300h16M240 301h16M240 302h16M240 303h16M240 304h16M240 305h16M240 306h16M240 307h16M240 308h16M240 309h16M240 310h16M240 311h16M240 312h16M240 313h16M240 314h16M240 315h16M240 316h16M240 317h16M240 318h16M240 319h16M240 320h16M240 321h16M240 322h16M240 323h16M240 324h16M240 325h16M240 326h16M240 327h16M240 328h16M240 329h16M240 330h16M240 331h16M240 332h16M240 333h16M240 334h16M240 335h16M240 336h16M240 337h16M240 338h16M240 339h16M240 340h16M240 341h16M240 342h16M240 343h16M240 344h16M240 345h16M240 346h16M240 347h16M240 348h16M240 349h16M240 350h16M240 351h16M240 352h16M240 353h16M240 354h16M240 355h16M240 356h16M240 357h16M240 358h16M240 359h16M240 360h16M240 361h16M240 362h16M240 363h16M240 364h16M240 365h16M240 366h16M240 367h16" />

<path stroke="#550e11" d="M448 64h16M448 65h16M448 66h16M448 67h16M448 68h16M448 69h16M448 70h16M448 71h16M448 72h16M448 73h16M448 74h16M448 75h16M448 76h16M448 77h16M448 78h16M448 79h16M288 352h16M288 353h16M288 354h16M288 355h16M288 356h16M288 357h16M288 358h16M288 359h16M288 360h16M288 361h16M288 362h16M288 363h16M288 364h16M288 365h16M288 366h16M288 367h16" />

<path stroke="#92181f" d="M464 64h16M464 65h16M464 66h16M464 67h16M464 68h16M464 69h16M464 70h16M464 71h16M464 72h16M464 73h16M464 74h16M464 75h16M464 76h16M464 77h16M464 78h16M464 79h16M256 416h16M256 417h16M256 418h16M256 419h16M256 420h16M256 421h16M256 422h16M256 423h16M256 424h16M256 425h16M256 426h16M256 427h16M256 428h16M256 429h16M256 430h16M256 431h16M256 432h16M256 433h16M256 434h16M256 435h16M256 436h16M256 437h16M256 438h16M256 439h16M256 440h16M256 441h16M256 442h16M256 443h16M256 444h16M256 445h16M256 446h16M256 447h16M256 448h16M256 449h16M256 450h16M256 451h16M256 452h16M256 453h16M256 454h16M256 455h16M256 456h16M256 457h16M256 458h16M256 459h16M256 460h16M256 461h16M256 462h16M256 463h16M256 464h16M256 465h16M256 466h16M256 467h16M256 468h16M256 469h16M256 470h16M256 471h16M256 472h16M256 473h16M256 474h16M256 475h16M256 476h16M256 477h16M256 478h16M256 479h16M256 480h16M256 481h16M256 482h16M256 483h16M256 484h16M256 485h16M256 486h16M256 487h16M256 488h16M256 489h16M256 490h16M256 491h16M256 492h16M256 493h16M256 494h16M256 495h16M240 496h32M240 497h32M240 498h32M240 499h32M240 500h32M240 501h32M240 502h32M240 503h32M240 504h32M240 505h32M240 506h32M240 507h32M240 508h32M240 509h32M240 510h32M240 511h32" />

<path stroke="#d0222c" d="M480 64h16M480 65h16M480 66h16M480 67h16M480 68h16M480 69h16M480 70h16M480 71h16M480 72h16M480 73h16M480 74h16M480 75h16M480 76h16M480 77h16M480 78h16M480 79h16M176 352h48M272 352h16M176 353h48M272 353h16M176 354h48M272 354h16M176 355h48M272 355h16M176 356h48M272 356h16M176 357h48M272 357h16M176 358h48M272 358h16M176 359h48M272 359h16M176 360h48M272 360h16M176 361h48M272 361h16M176 362h48M272 362h16M176 363h48M272 363h16M176 364h48M272 364h16M176 365h48M272 365h16M176 366h48M272 366h16M176 367h48M272 367h16M176 368h128M176 369h128M176 370h128M176 371h128M176 372h128M176 373h128M176 374h128M176 375h128M176 376h128M176 377h128M176 378h128M176 379h128M176 380h128M176 381h128M176 382h128M176 383h128M176 384h16M208 384h48M288 384h16M176 385h16M208 385h48M288 385h16M176 386h16M208 386h48M288 386h16M176 387h16M208 387h48M288 387h16M176 388h16M208 388h48M288 388h16M176 389h16M208 389h48M288 389h16M176 390h16M208 390h48M288 390h16M176 391h16M208 391h48M288 391h16M176 392h16M208 392h48M288 392h16M176 393h16M208 393h48M288 393h16M176 394h16M208 394h48M288 394h16M176 395h16M208 395h48M288 395h16M176 396h16M208 396h48M288 396h16M176 397h16M208 397h48M288 397h16M176 398h16M208 398h48M288 398h16M176 399h16M208 399h48M288 399h16M176 400h16M208 400h48M288 400h16M176 401h16M208 401h48M288 401h16M176 402h16M208 402h48M288 402h16M176 403h16M208 403h48M288 403h16M176 404h16M208 404h48M288 404h16M176 405h16M208 405h48M288 405h16M176 406h16M208 406h48M288 406h16M176 407h16M208 407h48M288 407h16M176 408h16M208 408h48M288 408h16M176 409h16M208 409h48M288 409h16M176 410h16M208 410h48M288 410h16M176 411h16M208 411h48M288 411h16M176 412h16M208 412h48M288 412h16M176 413h16M208 413h48M288 413h16M176 414h16M208 414h48M288 414h16M176 415h16M208 415h48M288 415h16M176 416h16M208 416h48M288 416h16M176 417h16M208 417h48M288 417h16M176 418h16M208 418h48M288 418h16M176 419h16M208 419h48M288 419h16M176 420h16M208 420h48M288 420h16M176 421h16M208 421h48M288 421h16M176 422h16M208 422h48M288 422h16M176 423h16M208 423h48M288 423h16M176 424h16M208 424h48M288 424h16M176 425h16M208 425h48M288 425h16M176 426h16M208 426h48M288 426h16M176 427h16M208 427h48M288 427h16M176 428h16M208 428h48M288 428h16M176 429h16M208 429h48M288 429h16M176 430h16M208 430h48M288 430h16M176 431h16M208 431h48M288 431h16M176 432h16M208 432h48M288 432h16M176 433h16M208 433h48M288 433h16M176 434h16M208 434h48M288 434h16M176 435h16M208 435h48M288 435h16M176 436h16M208 436h48M288 436h16M176 437h16M208 437h48M288 437h16M176 438h16M208 438h48M288 438h16M176 439h16M208 439h48M288 439h16M176 440h16M208 440h48M288 440h16M176 441h16M208 441h48M288 441h16M176 442h16M208 442h48M288 442h16M176 443h16M208 443h48M288 443h16M176 444h16M208 444h48M288 444h16M176 445h16M208 445h48M288 445h16M176 446h16M208 446h48M288 446h16M176 447h16M208 447h48M288 447h16M176 448h16M208 448h48M288 448h16M176 449h16M208 449h48M288 449h16M176 450h16M208 450h48M288 450h16M176 451h16M208 451h48M288 451h16M176 452h16M208 452h48M288 452h16M176 453h16M208 453h48M288 453h16M176 454h16M208 454h48M288 454h16M176 455h16M208 455h48M288 455h16M176 456h16M208 456h48M288 456h16M176 457h16M208 457h48M288 457h16M176 458h16M208 458h48M288 458h16M176 459h16M208 459h48M288 459h16M176 460h16M208 460h48M288 460h16M176 461h16M208 461h48M288 461h16M176 462h16M208 462h48M288 462h16M176 463h16M208 463h48M288 463h16M176 464h16M208 464h48M288 464h16M176 465h16M208 465h48M288 465h16M176 466h16M208 466h48M288 466h16M176 467h16M208 467h48M288 467h16M176 468h16M208 468h48M288 468h16M176 469h16M208 469h48M288 469h16M176 470h16M208 470h48M288 470h16M176 471h16M208 471h48M288 471h16M176 472h16M208 472h48M288 472h16M176 473h16M208 473h48M288 473h16M176 474h16M208 474h48M288 474h16M176 475h16M208 475h48M288 475h16M176 476h16M208 476h48M288 476h16M176 477h16M208 477h48M288 477h16M176 478h16M208 478h48M288 478h16M176 479h16M208 479h48M288 479h16M176 480h16M208 480h48M288 480h16M176 481h16M208 481h48M288 481h16M176 482h16M208 482h48M288 482h16M176 483h16M208 483h48M288 483h16M176 484h16M208 484h48M288 484h16M176 485h16M208 485h48M288 485h16M176 486h16M208 486h48M288 486h16M176 487h16M208 487h48M288 487h16M176 488h16M208 488h48M288 488h16M176 489h16M208 489h48M288 489h16M176 490h16M208 490h48M288 490h16M176 491h16M208 491h48M288 491h16M176 492h16M208 492h48M288 492h16M176 493h16M208 493h48M288 493h16M176 494h16M208 494h48M288 494h16M176 495h16M208 495h48M288 495h16M176 496h16M208 496h32M288 496h16M176 497h16M208 497h32M288 497h16M176 498h16M208 498h32M288 498h16M176 499h16M208 499h32M288 499h16M176 500h16M208 500h32M288 500h16M176 501h16M208 501h32M288 501h16M176 502h16M208 502h32M288 502h16M176 503h16M208 503h32M288 503h16M176 504h16M208 504h32M288 504h16M176 505h16M208 505h32M288 505h16M176 506h16M208 506h32M288 506h16M176 507h16M208 507h32M288 507h16M176 508h16M208 508h32M288 508h16M176 509h16M208 509h32M288 509h16M176 510h16M208 510h32M288 510h16M176 511h16M208 511h32M288 511h16" />

<path stroke="#ffffff" d="M176 144h48M272 144h48M176 145h48M272 145h48M176 146h48M272 146h48M176 147h48M272 147h48M176 148h48M272 148h48M176 149h48M272 149h48M176 150h48M272 150h48M176 151h48M272 151h48M176 152h48M272 152h48M176 153h48M272 153h48M176 154h48M272 154h48M176 155h48M272 155h48M176 156h48M272 156h48M176 157h48M272 157h48M176 158h48M272 158h48M176 159h48M272 159h48" />

<path stroke="#d4dce0" d="M320 384h16M320 385h16M320 386h16M320 387h16M320 388h16M320 389h16M320 390h16M320 391h16M320 392h16M320 393h16M320 394h16M320 395h16M320 396h16M320 397h16M320 398h16M320 399h16M320 400h16M320 401h16M320 402h16M320 403h16M320 404h16M320 405h16M320 406h16M320 407h16M320 408h16M320 409h16M320 410h16M320 411h16M320 412h16M320 413h16M320 414h16M320 415h16M320 416h16M320 417h16M320 418h16M320 419h16M320 420h16M320 421h16M320 422h16M320 423h16M320 424h16M320 425h16M320 426h16M320 427h16M320 428h16M320 429h16M320 430h16M320 431h16M320 432h16M320 433h16M320 434h16M320 435h16M320 436h16M320 437h16M320 438h16M320 439h16M320 440h16M320 441h16M320 442h16M320 443h16M320 444h16M320 445h16M320 446h16M320 447h16M320 448h16M320 449h16M320 450h16M320 451h16M320 452h16M320 453h16M320 454h16M320 455h16M320 456h16M320 457h16M320 458h16M320 459h16M320 460h16M320 461h16M320 462h16M320 463h16M320 464h16M320 465h16M320 466h16M320 467h16M320 468h16M320 469h16M320 470h16M320 471h16M320 472h16M320 473h16M320 474h16M320 475h16M320 476h16M320 477h16M320 478h16M320 479h16M320 480h16M320 481h16M320 482h16M320 483h16M320 484h16M320 485h16M320 486h16M320 487h16M320 488h16M320 489h16M320 490h16M320 491h16M320 492h16M320 493h16M320 494h16M320 495h16M320 496h16M320 497h16M320 498h16M320 499h16M320 500h16M320 501h16M320 502h16M320 503h16M320 504h16M320 505h16M320 506h16M320 507h16M320 508h16M320 509h16M320 510h16M320 511h16" />
</svg>